<svg xmlns="http://www.w3.org/2000/svg" viewBox="0 0 1063.5 1006.2">
  <g id="Layer_2" data-name="Layer 2">
    <g id="Layer_1-2" data-name="Layer 1">
      <g id="Layer_2-2" data-name="Layer 2">
        <g id="Layer_4" data-name="Layer 4">
          <g>
            <path d="M236.8,787.8l1.7.8L175.1,948.2a94.1,94.1,0,0,1-25.5,35.9A90.9,90.9,0,0,1,0,916.3v-2.6a91.9,91.9,0,0,1,6.7-32.8L69.5,722.8h0A90.3,90.3,0,0,0,124.1,745h4.3l54.7,1.5a149.9,149.9,0,0,0,42.8,35.6C229.3,784.1,233,786,236.8,787.8Z" fill="#fff"/>
            <path d="M266.1,718.9l-10.6-.3h-4.2a4.8,4.8,0,0,0-4.9,4.8,4.9,4.9,0,0,1,4.9-4.9h4.2Z" fill="#fff"/>
            <path d="M691.4,341l-9,3.5L531.7,402.7l-9.3,3.6h-.3l-65.9-166L438.5,285,366.3,466.6l-25.9,10-12.7,4.9L135.9,555.7,316.7,100.5l.5-2,.5-.5,4.2-10.7V87l1-2A147.1,147.1,0,0,1,592,90.5v.2l1.7,4.3Z" fill="#fff"/>
            <path d="M912.6,915.9a91.6,91.6,0,0,1-86.1,90.1l-5.2.2a88.1,88.1,0,0,1-50.8-16.1,91.7,91.7,0,0,1-33.1-41.7L662.6,760l136.9,3.8h.6l4.2.2h3.9a63.8,63.8,0,0,0,8.7-.7h.4A83.7,83.7,0,0,0,849.6,751l.4-.3,3.3-2.2L901.5,870l2.6,6.2H904l2,5a87.4,87.4,0,0,1,5.8,21.9h0A90.7,90.7,0,0,1,912.6,915.9Z" fill="#fff"/>
            <g>
              <path d="M855,678.7a9.9,9.9,0,0,0-2.4-.3,10,10,0,0,0-8.4,4.4l-.9,1.6a80.5,80.5,0,0,1-9.9,14,59.7,59.7,0,0,1-7.8,7.3,40.7,40.7,0,0,1-18.2,7.9,50.9,50.9,0,0,1-5.5.4c-41.3,0-84.3-68.5-97.7-158-7.9-52.4-4-100.8,8.5-134.4a122.6,122.6,0,0,1,5.6-12.9c9.6-19.1,22.7-31.3,38.3-33.6a34.1,34.1,0,0,1,5.5-.5c16.2,0,32.7,10.6,47.5,28.8l.9,1.1c0,.1,0,.1.1.1a10.8,10.8,0,0,0,8.1,3.5,11,11,0,0,0,9.2-17.2l-.6-.9h-.1c-19.5-25.5-42.2-40.6-64.6-40.6a51,51,0,0,0-17.1,3.1h-.2l-1.4.6-41.4,16-9.3,3.6-150.7,58-9.3,3.6-182,70.3-12.7,4.9-205,79.3-12.7,4.9-8.2,3.1L101.9,601A60.3,60.3,0,0,0,75,681.9a53.8,53.8,0,0,0,6.6,10.4,71.9,71.9,0,0,0,7.6,8A60,60,0,0,0,125.7,715h3.1l69.9,2c9.8,15.6,24.3,29,41.9,39,2.9,1.6,5.9,3.1,8.9,4.6a152.6,152.6,0,0,0,64.2,13.9c47,0,88.1-20.5,110.7-51.3l226.1,6.4,10.9.3,139,3.8h.1l4.9.2h2.3a29.6,29.6,0,0,0,5.2-.5,51,51,0,0,0,20.5-7.9h.2a62.6,62.6,0,0,0,8.1-6.3,92.6,92.6,0,0,0,18.4-23.8l2.4-4.4A10.2,10.2,0,0,0,855,678.7ZM371.5,729a6.9,6.9,0,0,1-3.9,5.7,115.5,115.5,0,0,1-107.8.1c-3-1.7-5.9-3.5-8.6-5.4l-2.9-2.1a4.9,4.9,0,0,1-1.9-3.8h0a4.9,4.9,0,0,1,4.9-4.9h4.2l10.6.3,98.4,2.8a6.9,6.9,0,0,1,6.9,5.9c0,.2.1.4.1.7Z" fill="#fff"/>
              <path d="M371.4,727.5a6.9,6.9,0,0,0-6.9-5.8l-98.4-2.8-10.6-.3h-4.2a4.8,4.8,0,0,0-4.9,4.8,4.9,4.9,0,0,1,4.9-4.9h4.2l10.6.3,98.4,2.8A6.9,6.9,0,0,1,371.4,727.5Z" fill="#fff"/>
              <path d="M367.6,734.7a115.5,115.5,0,0,1-107.8.1c-3-1.7-5.9-3.5-8.6-5.4l-2.9-2.1a4.9,4.9,0,0,1-1.9-3.8,4.9,4.9,0,0,0,1.9,3.9l2.9,2.1c2.7,1.9,5.6,3.7,8.6,5.4a115.2,115.2,0,0,0,107.8-.2,6.8,6.8,0,0,0,3.9-5.7A7.1,7.1,0,0,1,367.6,734.7Zm0,0a115.5,115.5,0,0,1-107.8.1c-3-1.7-5.9-3.5-8.6-5.4l-2.9-2.1a4.9,4.9,0,0,1-1.9-3.8,4.9,4.9,0,0,0,1.9,3.9l2.9,2.1c2.7,1.9,5.6,3.7,8.6,5.4a115.2,115.2,0,0,0,107.8-.2,6.8,6.8,0,0,0,3.9-5.7A7.1,7.1,0,0,1,367.6,734.7Zm0,0a115.5,115.5,0,0,1-107.8.1c-3-1.7-5.9-3.5-8.6-5.4l-2.9-2.1a4.9,4.9,0,0,1-1.9-3.8,4.9,4.9,0,0,0,1.9,3.9l2.9,2.1c2.7,1.9,5.6,3.7,8.6,5.4a115.2,115.2,0,0,0,107.8-.2,6.8,6.8,0,0,0,3.9-5.7A7.1,7.1,0,0,1,367.6,734.7Z" fill="#fff"/>
            </g>
            <path d="M800.8,477.8a258.3,258.3,0,0,1,18.1,132.9,11.6,11.6,0,0,0,6.3,11.8h.3a11.3,11.3,0,0,0,15.3-5,12.3,12.3,0,0,0,1.2-3.7c6.6-49.3.1-99.2-20.1-145.2a11.5,11.5,0,0,0-15.2-5.8,10.6,10.6,0,0,0-3.3,2.2h0A11.5,11.5,0,0,0,800.8,477.8Z" fill="#fff"/>
            <path d="M872,417.7a298,298,0,0,1,31.7,230.9,14.1,14.1,0,0,0,7.4,16.4l.4.2a14.1,14.1,0,0,0,19-6.4,24.4,24.4,0,0,0,1-2.4,314,314,0,0,0-35.2-253.5,14.3,14.3,0,0,0-19.7-4.5l-2.1,1.6h0A14.3,14.3,0,0,0,872,417.7Z" fill="#fff"/>
            <path d="M951.9,353.7c71.8,95.4,89.7,221.7,46.3,333.2a19.7,19.7,0,0,0,9.7,25h0a19.9,19.9,0,0,0,26.6-9.1,11.7,11.7,0,0,0,.5-1.1c51.8-123.9,32.1-267.3-51.8-372.4a19.8,19.8,0,0,0-27.8-3.1l-1.1.9h0A19.8,19.8,0,0,0,951.9,353.7Z" fill="#fff"/>
          </g>
        </g>
      </g>
    </g>
  </g>
</svg>
