<svg xmlns="http://www.w3.org/2000/svg" xmlns:xlink="http://www.w3.org/1999/xlink" viewBox="0 0 482.1 98.9">
  <defs>
    <mask id="mask" x="212.21" y="3.79" width="76.11" height="59.84" maskUnits="userSpaceOnUse">
      <g id="a_b-c" data-name="a+b-c">
        <polygon id="a_b-b" data-name="a+b-b" points="212.2 21.1 276.9 3.8 288.3 46.3 223.6 63.6 212.2 21.1" fill="#fff" fill-rule="evenodd"/>
      </g>
    </mask>
  </defs>
  <g id="Layer_2" data-name="Layer 2">
    <g id="Layer_1-2" data-name="Layer 1">
      <g>
        <g style="isolation: isolate">
          <text transform="translate(25 57)" font-size="66" fill="#cdcdd3" font-family="ArialRoundedMTBold, Arial Rounded MT Bold" style="isolation: isolate">A</text>
        </g>
        <g style="isolation: isolate">
          <text transform="translate(0 93)" font-size="18" fill="#cdcdd3" font-family="ArialMT, Arial" style="isolation: isolate"><tspan letter-spacing="-0.06em">A </tspan><tspan x="15" y="0">Alphabet</tspan></text>
        </g>
        <text transform="translate(200 93)" font-size="18" fill="#cdcdd3" font-family="ArialMT, Arial" style="isolation: isolate">Megaphone</text>
        <g style="isolation: isolate">
          <text transform="translate(401 93)" font-size="18" fill="#f22f55" font-family="ArialMT, Arial" style="isolation: isolate">Announce</text>
        </g>
        <g mask="url(#mask)">
          <path d="M252.4,49.8c-2.9,1.5-12.5,1.2-13.7,1s-1.6-2.5-2.2-4.2l19.2-.6a8.1,8.1,0,0,1-3.3,3.8M274.1,4.5a2.9,2.9,0,0,0-2,3.6l.2.8L220.8,36.2l-.3-1.2a2.2,2.2,0,0,0-4.3,1.2l3.4,12.4a2.1,2.1,0,0,0,2.7,1.5,2.2,2.2,0,0,0,1.6-2.7l-.2-.4,9.5-.3,1.5,5.7c.9,3.1,17.5,1.7,20.2-.1s3.4-4.5,4.2-6.4l22.9-.7a2.9,2.9,0,0,0,3.5,1.8,2.9,2.9,0,0,0,2.1-3.5L277.7,6.6a2.9,2.9,0,0,0-3.6-2.1" fill="#cdcdd3" fill-rule="evenodd"/>
        </g>
        <g>
          <line x1="142.5" y1="13.5" x2="142.5" y2="52.5" fill="none" stroke="#cdcdd3" stroke-linejoin="round" stroke-width="5"/>
          <line x1="162" y1="33" x2="123" y2="33" fill="none" stroke="#cdcdd3" stroke-linejoin="round" stroke-width="5"/>
        </g>
        <g>
          <line x1="368.4" y1="26" x2="338.4" y2="26" fill="none" stroke="#cdcdd3" stroke-linejoin="round" stroke-width="5"/>
          <line x1="368.4" y1="41" x2="338.4" y2="41" fill="none" stroke="#cdcdd3" stroke-linejoin="round" stroke-width="5"/>
        </g>
        <g>
          <path d="M431.8,48.8h.1l-3.6,9.1a4.8,4.8,0,0,1-1.4,2,5.3,5.3,0,0,1-5.5.8,5.1,5.1,0,0,1-3-4.6v-.2a3.9,3.9,0,0,1,.4-1.8l3.5-9h0a5.3,5.3,0,0,0,3.1,1.3h3.4a7.9,7.9,0,0,0,2.4,2.1Zm25.9-25.4-.5.2-8.6,3.3-.5.2h0l-3.8-9.4-1,2.5-4.1,10.3-1.5.6-.7.3-10.9,4.2L436.4,9.7h0l.3-.6h0A8.6,8.6,0,0,1,444.5,4,8.3,8.3,0,0,1,452,9.2h0v.2Zm12.6,32.7a5.3,5.3,0,0,1-4.9,5.1h-.3a4.8,4.8,0,0,1-2.9-.9,5,5,0,0,1-1.9-2.4L456,47.2l7.8.2h1a4.4,4.4,0,0,0,1.9-.7h.2l2.7,6.9.2.3h0v.3a5.3,5.3,0,0,1,.3,1.2h0c0,.3.1.5.1.8Z" fill="#f22f55"/>
          <path d="M466.8,42.6l-.4.2h-.1a2.2,2.2,0,0,1-.5.8l-.5.4a1.9,1.9,0,0,1-1,.5H464c-2.4,0-4.8-3.9-5.6-9a16.6,16.6,0,0,1,.5-7.6h0l.3-.8a3.6,3.6,0,0,1,2.2-1.9h.3a3.7,3.7,0,0,1,2.7,1.6h.1l.4.2a.7.7,0,0,0,.6-.3.6.6,0,0,0-.1-.7h0a4.8,4.8,0,0,0-3.7-2.3h-.4l-.5.2h-.1l-2.4.9-.5.2-8.6,3.3-.5.2-10.4,4-.7.3L426,37.5l-.7.3h-.5l-.6.3a3.3,3.3,0,0,0-1.8,2.3,3.3,3.3,0,0,0,.6,2.9l.5.4a3.7,3.7,0,0,0,2,.9h4.2a6.4,6.4,0,0,0,2.4,2.2l.5.2a8.4,8.4,0,0,0,9.9-2.1l12.9.4h.6l7.9.2h.7l1.2-.4h0c.1-.2.3-.3.4-.4a7.6,7.6,0,0,0,1.1-1.4v-.2a.7.7,0,0,0-.1-.5l-.5-.2Zm-27.5,3.2a6.6,6.6,0,0,1-6.1,0l-.5-.3h-.2c-.1-.1-.1-.2-.1-.4s.2-.1.3-.1h6.4c.2,0,.3.2.4.3a.8.8,0,0,1-.2.5Z" fill="#f22f55"/>
          <path d="M463.9,31.2a13.9,13.9,0,0,1,1,7.5.7.7,0,0,0,.4.7h0a.6.6,0,0,0,.6,0,.5.5,0,0,0,.3-.5,15.4,15.4,0,0,0-1.1-8.2.8.8,0,0,0-1.1-.3h0a1.1,1.1,0,0,0-.1.8Zm4-3.4a16.3,16.3,0,0,1,1.8,13.1.8.8,0,0,0,.5.9h0a.9.9,0,0,0,.7,0c.2-.1.4-.2.4-.5a17.8,17.8,0,0,0-2-14.4.9.9,0,0,0-.6-.4.9.9,0,0,0-.6.3h0C467.8,27,467.8,27.4,467.9,27.8Zm4.6-3.7a19.6,19.6,0,0,1,2.6,19,1.1,1.1,0,0,0,.6,1.4h0a1.4,1.4,0,0,0,.9,0,.9.9,0,0,0,.6-.6,21.1,21.1,0,0,0-2.9-21.2,1.2,1.2,0,0,0-.8-.4,1.6,1.6,0,0,0-.9.3h0a1.1,1.1,0,0,0-.1,1.5Z" fill="#f22f55"/>
        </g>
      </g>
    </g>
  </g>
</svg>
