<svg xmlns="http://www.w3.org/2000/svg" viewBox="0 0 72 71">
  <defs>
    <style>
      .cls-1 {
        fill: #00005b;
      }

      .cls-2 {
        fill: #99f;
      }
    </style>
  </defs>
  <g id="Layer_2" data-name="Layer 2">
    <g id="Layer_1-2" data-name="Layer 1">
      <g>
        <path class="cls-1" d="M12.75,0h46.5a12.72,12.72,0,0,1,9,3.77A13,13,0,0,1,72,12.9V58.1a13,13,0,0,1-3.73,9.13,12.72,12.72,0,0,1-9,3.77H12.75a12.72,12.72,0,0,1-9-3.77A13,13,0,0,1,0,58.1V12.9A13,13,0,0,1,3.73,3.77,12.72,12.72,0,0,1,12.75,0Z"/>
        <path class="cls-2" d="M29.92,43H18.76l-2.28,7.08a.53.53,0,0,1-.57.42H10.27c-.33,0-.42-.18-.33-.54L19.6,22.27c.09-.3.18-.57.3-.93a10.64,10.64,0,0,0,.18-1.95.3.3,0,0,1,.24-.33h7.77c.21,0,.36.09.39.24l11,30.75c.09.33,0,.48-.3.48H32.86a.46.46,0,0,1-.48-.33ZM20.5,37h7.62c-.18-.63-.42-1.38-.69-2.16s-.54-1.68-.81-2.58-.57-1.83-.87-2.76-.57-1.8-.81-2.67-.45-1.62-.66-2.34h-.06a36.62,36.62,0,0,1-1,3.87c-.45,1.44-.9,2.94-1.38,4.44S21,35.77,20.5,37Zm36.72,3.24H47.71a6.51,6.51,0,0,0,.93,2.67,4.71,4.71,0,0,0,2.19,1.8,9.36,9.36,0,0,0,3.84.75,18.15,18.15,0,0,0,3.12-.33,11.28,11.28,0,0,0,2.67-.69c.15-.12.24-.06.24.24v4.59a2.25,2.25,0,0,1-.06.36.7.7,0,0,1-.21.21,13.13,13.13,0,0,1-3,.9,20.27,20.27,0,0,1-4.26.36,14.22,14.22,0,0,1-5.76-1.05,10.1,10.1,0,0,1-3.78-2.85,11.08,11.08,0,0,1-2.07-3.93,15.51,15.51,0,0,1,.12-9.15A12.27,12.27,0,0,1,43.93,30a10.85,10.85,0,0,1,3.63-2.85,11.42,11.42,0,0,1,5-.93,10.78,10.78,0,0,1,4.65.93,8.26,8.26,0,0,1,3.15,2.4A11,11,0,0,1,62.17,33a12,12,0,0,1,.57,3.66,19,19,0,0,1-.06,1.92c-.06.57-.09,1-.12,1.26a.45.45,0,0,1-.42.39,7.66,7.66,0,0,0-1,.06,12.68,12.68,0,0,1-1.74.09c-.69,0-1.41-.12-2.19-.12Zm-9.51-4.38h8a1.43,1.43,0,0,0,.69-.24v-.3a3.49,3.49,0,0,0-.18-1.11,4,4,0,0,0-3.9-2.76,4.22,4.22,0,0,0-4,2.28,6.13,6.13,0,0,0-.61,2.13Z"/>
      </g>
    </g>
  </g>
</svg>
