<svg xmlns="http://www.w3.org/2000/svg" xmlns:xlink="http://www.w3.org/1999/xlink" viewBox="0 0 35 35">
  <defs>
    <linearGradient id="linear-gradient" x1="2.79" y1="32.41" x2="26.72" y2="9.78" gradientTransform="matrix(1, 0, 0, -1, 0, 36)" gradientUnits="userSpaceOnUse">
      <stop offset="0" stop-color="#0074f8"/>
      <stop offset="1" stop-color="#e007b5"/>
    </linearGradient>
    <linearGradient id="linear-gradient-2" x1="5.98" y1="35.78" x2="29.9" y2="13.16" xlink:href="#linear-gradient"/>
    <linearGradient id="linear-gradient-3" x1="3.32" y1="32.97" x2="27.24" y2="10.34" xlink:href="#linear-gradient"/>
    <linearGradient id="linear-gradient-4" x1="0.47" y1="29.95" x2="24.39" y2="7.33" xlink:href="#linear-gradient"/>
    <linearGradient id="linear-gradient-5" x1="8.6" y1="38.55" x2="32.52" y2="15.93" xlink:href="#linear-gradient"/>
    <linearGradient id="linear-gradient-6" x1="3.26" y1="32.9" x2="27.18" y2="10.28" xlink:href="#linear-gradient"/>
    <linearGradient id="linear-gradient-7" x1="3.38" y1="33.03" x2="27.3" y2="10.4" xlink:href="#linear-gradient"/>
    <linearGradient id="linear-gradient-8" x1="-2.55" y1="26.76" x2="21.38" y2="4.14" xlink:href="#linear-gradient"/>
  </defs>
  <g id="Layer_2" data-name="Layer 2">
    <g id="Layer_1-2" data-name="Layer 1">
      <g>
        <path d="M7,1H28a6,6,0,0,1,6,6V28a6,6,0,0,1-6,6H7a6,6,0,0,1-6-6V7A6,6,0,0,1,7,1Z" fill="#fff"/>
        <g id="Layer_2-2" data-name="Layer 2">
          <g id="Layer_1-2-2" data-name="Layer 1-2">
            <path d="M28,35H7a7,7,0,0,1-7-7V7A7,7,0,0,1,7,0H28a7,7,0,0,1,7,7h0V28A7,7,0,0,1,28,35ZM7,2A5,5,0,0,0,2,7V28a5,5,0,0,0,5,5H28a5,5,0,0,0,5-5V7a5,5,0,0,0-5-5Z" fill="url(#linear-gradient)"/>
            <path d="M21.5,19.5a.9.9,0,0,1-.7-.3,1,1,0,0,1,0-1.4l3.6-3.6A1,1,0,1,1,26,15.4l-.2.2-3.6,3.6A.9.9,0,0,1,21.5,19.5Z" fill="url(#linear-gradient-2)"/>
            <path d="M19.6,19.5a.9.9,0,0,1-.7-.3l-2.6-2.6a1.1,1.1,0,0,1,.2-1.4.9.9,0,0,1,1.2,0l2.6,2.6a1,1,0,0,1,0,1.4A.9.9,0,0,1,19.6,19.5Z" fill="url(#linear-gradient-3)"/>
            <path d="M10.9,21.1a.9.9,0,0,1-.7-.3,1,1,0,0,1,0-1.4l4.2-4.2A1,1,0,0,1,16,16.4l-.2.2-4.2,4.2A.9.9,0,0,1,10.9,21.1Z" fill="url(#linear-gradient-4)"/>
            <circle cx="26.1" cy="14" r="2" fill="url(#linear-gradient-5)"/>
            <circle cx="20.6" cy="19.5" r="2" fill="url(#linear-gradient-6)"/>
            <path d="M16.1,17a2,2,0,1,1,2-2A2,2,0,0,1,16.1,17Z" fill="url(#linear-gradient-7)"/>
            <circle cx="10" cy="21.1" r="2" fill="url(#linear-gradient-8)"/>
          </g>
        </g>
      </g>
    </g>
  </g>
</svg>
