<svg xmlns="http://www.w3.org/2000/svg" viewBox="0 0 35 35"><defs><style>.cls-1{fill:#fff;}.cls-2{fill:#f22f55;}</style></defs><g id="Layer_2" data-name="Layer 2"><g id="Layer_1-2" data-name="Layer 1"><rect class="cls-1" x="1" y="1" width="33" height="33" rx="6"/><path class="cls-2" d="M28,35H7a7,7,0,0,1-7-7V7A7,7,0,0,1,7,0H28a7,7,0,0,1,7,7V28A7,7,0,0,1,28,35ZM7,2A5,5,0,0,0,2,7V28a5,5,0,0,0,5,5H28a5,5,0,0,0,5-5V7a5,5,0,0,0-5-5Z"/><path class="cls-2" d="M21.5,19.5a1.1,1.1,0,0,1-.7-.3,1,1,0,0,1,0-1.4l3.6-3.6a1,1,0,1,1,1.4,1.4l-3.6,3.6A.9.9,0,0,1,21.5,19.5Z"/><path class="cls-2" d="M19.6,19.5a1.1,1.1,0,0,1-.7-.3l-2.6-2.6a1,1,0,0,1,1.4-1.4l2.6,2.6a1,1,0,0,1,0,1.4A.9.9,0,0,1,19.6,19.5Z"/><path class="cls-2" d="M10.9,21.1a1.1,1.1,0,0,1-.7-.3,1,1,0,0,1,0-1.4l4.2-4.2a1,1,0,1,1,1.4,1.4l-4.2,4.2A.9.9,0,0,1,10.9,21.1Z"/><circle class="cls-2" cx="26.1" cy="14" r="2"/><circle class="cls-2" cx="20.6" cy="19.5" r="2"/><path class="cls-2" d="M16.1,17a2,2,0,1,1,2-2A2,2,0,0,1,16.1,17Z"/><circle class="cls-2" cx="10" cy="21.1" r="2"/></g></g></svg>