<?xml version="1.0" encoding="utf-8"?>
<!-- Generator: Adobe Illustrator 24.2.3, SVG Export Plug-In . SVG Version: 6.00 Build 0)  -->
<svg version="1.1" id="Layer_1" xmlns="http://www.w3.org/2000/svg" xmlns:xlink="http://www.w3.org/1999/xlink" x="0px" y="0px"
	 viewBox="0 0 500.2 112.2" style="enable-background:new 0 0 500.2 112.2;" xml:space="preserve">
<style type="text/css">
	.st0{fill:#CDCDD3;}
	.st1{fill:none;}
	.st2{fill:none;stroke:#282828;stroke-width:0.11;stroke-miterlimit:10;}
	.st3{fill:none;stroke:#737373;stroke-width:0.16;stroke-miterlimit:10;stroke-dasharray:4.92;}
	.st4{fill:none;stroke:#737373;stroke-width:0.16;stroke-miterlimit:10;}
	.st5{fill:none;stroke:#737373;stroke-width:0.16;stroke-miterlimit:10;stroke-dasharray:4.9,4.9;}
	.st6{fill:none;stroke:#737373;stroke-width:0.16;stroke-miterlimit:10;stroke-dasharray:5.1,5.1;}
</style>
<g id="Layer_2_1_">
	<g id="Layer_1-2">
		<g>
			<g id="Layer_2-2">
				<g id="Layer_1-2-2">
					<g>
						<g id="Layer_2-2-2">
							<g id="Layer_4">
								<g>
									<path class="st0" d="M34.4,79.6L34.4,79.6l-5.1,13.1c-0.4,1.2-1.1,2.2-2.1,3c-3.2,2.6-7.8,2.2-10.5-0.9
										c-1.1-1.3-1.7-3-1.7-4.7v-0.2c0-0.9,0.2-1.8,0.5-2.7l5.2-13l0,0c1.2,1.1,2.8,1.8,4.4,1.9H30c1,1.2,2.2,2.2,3.5,2.9
										L34.4,79.6z"/>
									<path class="st0" d="M36.8,73.9h-1.2c-0.2,0-0.4,0.2-0.4,0.4l0,0l0,0V74L36.8,73.9L36.8,73.9z"/>
									<path class="st0" d="M71.7,42.9l-0.8,0.3L58.6,48l-0.8,0.3l0,0l-5.4-13.6l-1.5,3.6L45,53.2l-2.1,0.9l-1.1,0.4l-15.7,6
										l14.8-37.3V23l0,0l0.4-0.9l0,0v-0.2c2.9-6,10-8.6,16.1-5.8c2.7,1.3,4.9,3.5,6,6.3l0,0l0.2,0.4L71.7,42.9z"/>
									<path class="st0" d="M89.8,90.1c0,4-3.2,7.2-7.1,7.4h-0.4c-1.5,0-2.9-0.5-4.1-1.3c-1.2-0.9-2.2-2.1-2.8-3.5l-6.1-15.4
										l11.2,0.3H82c0.9-0.2,1.8-0.5,2.6-1h0.3l4,9.9l0.2,0.5l0,0l0.2,0.4c0.2,0.6,0.4,1.2,0.4,1.8l0,0
										C89.8,89.5,89.8,89.8,89.8,90.1z"/>
									<g>
										<path class="st0" d="M85.1,70.6h-0.2c-0.3,0-0.6,0.2-0.7,0.4h-0.1c-0.2,0.4-0.5,0.8-0.8,1.1c-0.1,0.2-0.4,0.5-0.6,0.6
											c-0.4,0.4-0.9,0.6-1.5,0.7h-0.5c-3.4,0-6.9-5.6-8-12.9c-0.6-3.7-0.4-7.5,0.7-11.1c0.1-0.4,0.3-0.7,0.5-1
											c0.8-1.6,1.8-2.6,3.1-2.8h0.5c1.3,0,2.6,0.9,3.9,2.3l0,0c0.3,0.4,0.9,0.4,1.3,0.1c0,0,0,0,0,0c0.2-0.2,0.3-0.4,0.3-0.7
											c0-0.2,0-0.3-0.1-0.5h-0.1c-1.6-2.1-3.5-3.4-5.3-3.4h-0.6l-0.8,0.2H76l-3.4,1.3l-0.8,0.3l-12.3,5.1l-0.8,0.3l-14.9,5.7
											l-1.1,0.5l-16.8,6.5l-1,0.4l-0.7,0.2l-0.9,0.4c-2.4,1.2-3.4,4.1-2.2,6.6c0,0,0,0,0,0c0.1,0.3,0.3,0.6,0.6,0.8
											c0.1,0.3,0.4,0.5,0.6,0.7c0.9,0.7,1.9,1.1,3,1.2h0.2l5.8,0.2c0.9,1.3,2.1,2.4,3.4,3.2l0.7,0.3c1.7,0.8,3.5,1.2,5.3,1.2
											c3.5,0.1,6.9-1.5,9.1-4.2l18.5,0.5h0.9l11.4,0.3h1c0.6-0.1,1.2-0.3,1.7-0.6l0,0l0.7-0.6c0.6-0.5,1.1-1.2,1.5-1.9l0.2-0.4
											C85.8,71.2,85.5,70.7,85.1,70.6z M45.4,74.8c0,0.2-0.1,0.3-0.3,0.4c-2.7,1.5-6.1,1.5-8.8,0l-0.7-0.4l-0.3-0.2h-0.1v-0.3
											h1.6l8.1,0.2c0.3,0,0.5,0.2,0.5,0.5l0,0V74.8z"/>
										<path class="st0" d="M45.4,74.5L45.4,74.5c-0.1-0.2-0.3-0.3-0.5-0.3l-8.1-0.3h-1.2c-0.2,0-0.4,0.2-0.4,0.4l0,0l0,0V74h1.6
											l8.1,0.2C45.1,74.2,45.3,74.3,45.4,74.5z"/>
										<path class="st0" d="M45.4,74.6L45.4,74.6z"/>
										<path class="st0" d="M45.1,75.2c-2.7,1.5-6.1,1.5-8.8,0l-0.7-0.4l-0.3-0.2l0,0l0.3,0.2l0.7,0.4
											C39,76.7,42.4,76.7,45.1,75.2c0.2-0.1,0.3-0.2,0.3-0.4C45.4,75,45.3,75.1,45.1,75.2z M45.1,75.2c-2.7,1.5-6.1,1.5-8.8,0
											l-0.7-0.4l-0.3-0.2l0,0l0.3,0.2l0.7,0.4C39,76.7,42.4,76.7,45.1,75.2c0.2-0.1,0.3-0.2,0.3-0.4
											C45.4,75,45.3,75.1,45.1,75.2z M45.1,75.2c-2.7,1.5-6.1,1.5-8.8,0l-0.7-0.4l-0.3-0.2l0,0l0.3,0.2l0.7,0.4
											C39,76.7,42.4,76.7,45.1,75.2c0.2-0.1,0.3-0.2,0.3-0.4C45.4,75,45.3,75.1,45.1,75.2z"/>
									</g>
									<path class="st0" d="M80.6,54.2c1.5,3.4,2,7.2,1.5,10.9c0,0.4,0.2,0.7,0.5,0.9h0.1c0.4,0.2,0.9,0.1,1.1-0.2
										c0-0.1,0.1-0.1,0.1-0.2l0,0c0.1-0.1,0.1-0.2,0.1-0.3c0.6-4,0-8.2-1.6-11.9c-0.2-0.5-0.8-0.7-1.3-0.5l0,0
										C81,53,80.9,53,80.9,53.1l0,0C80.6,53.4,80.5,53.8,80.6,54.2z"/>
									<path class="st0" d="M86.5,49.2c3.4,5.7,4.3,12.6,2.6,19c-0.2,0.5,0.1,1.1,0.6,1.3c0,0,0,0,0,0l0,0
										c0.6,0.3,1.3,0.1,1.6-0.5l0,0v-0.2c2-7,1-14.6-2.8-20.8c-0.4-0.5-1-0.7-1.6-0.4l-0.2,0.2l0,0
										C86.3,48.2,86.2,48.7,86.5,49.2z"/>
									<path class="st0" d="M93,44c5.9,7.8,7.4,18.2,3.8,27.3c-0.3,0.8,0.1,1.6,0.8,2l0,0c0.8,0.4,1.7,0.1,2.2-0.6c0,0,0,0,0-0.1
										l0,0c4.3-10.2,2.7-22-4.2-30.6c-0.6-0.7-1.6-0.8-2.3-0.3h-0.1C92.5,42.3,92.5,43.3,93,44z"/>
								</g>
							</g>
						</g>
						<g>
							<path class="st0" d="M122.1,54.7v1.5c1.8-2.6,4.2-4.7,7-6.2c5.5-2.7,11.9-2.7,17.4,0.1c2.5,1.3,4.4,3.4,5.6,5.9
								c0.8,1.5,1.4,3.1,1.6,4.8c0.2,2.2,0.3,4.4,0.3,6.6v22.7c0,2.4-0.5,4.3-1.6,5.5c-1.1,1.3-2.7,2-4.4,1.9
								c-1.7,0-3.3-0.7-4.4-1.9c-1.2-1.6-1.8-3.5-1.7-5.5V69.8c0-4-0.5-7.1-1.7-9.2s-3.3-3.2-6.6-3.2c-2.2,0-4.3,0.6-6,1.9
								c-1.8,1.4-3.2,3.3-3.9,5.4c-0.6,1.8-0.9,5.2-0.9,10.1v15.3c0.1,2-0.5,3.9-1.7,5.5c-1.1,1.3-2.7,2-4.4,1.9
								c-1.7,0-3.3-0.7-4.4-1.9c-1.2-1.6-1.8-3.5-1.7-5.5V54.9c0-2.3,0.5-4.1,1.6-5.2c1-1.2,2.5-1.8,4.1-1.7c1,0,2,0.2,2.9,0.7
								c0.9,0.5,1.7,1.3,2.1,2.3C121.9,52.2,122.1,53.4,122.1,54.7z"/>
							<path class="st0" d="M177.2,54.7v1.5c1.9-2.6,4.3-4.7,7.1-6.2c5.5-2.7,11.9-2.7,17.3,0.1c2.5,1.3,4.5,3.3,5.7,5.9
								c0.8,1.5,1.3,3.1,1.6,4.8c0.2,2.2,0.3,4.4,0.3,6.6v22.7c0,2.4-0.5,4.3-1.7,5.5c-1.1,1.3-2.6,2-4.3,1.9
								c-1.7,0-3.3-0.7-4.4-1.9c-1.2-1.3-1.7-3.1-1.7-5.5V69.8c0-4-0.6-7.1-1.7-9.2s-3.3-3.2-6.7-3.2c-2.1,0-4.2,0.7-5.9,1.9
								c-1.8,1.3-3.2,3.2-3.9,5.4c-0.6,1.8-0.9,5.2-0.9,10.1v15.3c0.1,2-0.5,3.9-1.7,5.5c-1.1,1.3-2.8,2-4.5,1.9
								c-1.6,0-3.2-0.7-4.3-1.9c-1.2-1.6-1.8-3.5-1.7-5.5V54.9c0-2.3,0.5-4.1,1.5-5.2c1.1-1.2,2.6-1.8,4.2-1.7c1,0,2,0.2,2.9,0.7
								c0.9,0.6,1.6,1.4,2.1,2.3C177,52.2,177.3,53.4,177.2,54.7z"/>
							<path class="st0" d="M265.3,62.7c-1.1-2.9-2.8-5.6-4.9-7.9c-2.2-2.2-4.8-3.9-7.7-5c-3.2-1.2-6.6-1.8-10.1-1.8
								c-3.4,0-6.7,0.6-9.9,1.7c-2.9,1.1-5.5,2.8-7.7,5c-2.1,2.3-3.8,5-4.9,7.9c-1.1,3.2-1.7,6.7-1.6,10.1c-0.1,3.4,0.5,6.8,1.6,10
								c2.1,6,6.7,10.7,12.6,13c3.1,1.2,6.5,1.9,9.9,1.8c3.5,0.1,6.9-0.6,10.1-1.8c2.9-1.1,5.4-2.8,7.6-5c2.2-2.2,3.9-4.9,4.9-7.9
								c1.2-3.2,1.8-6.7,1.7-10.1C267,69.3,266.4,65.9,265.3,62.7z M251.4,84.3c-2.1,2.7-5.4,4.2-8.8,4.1c-2.3,0.1-4.5-0.6-6.3-1.9
								c-1.9-1.3-3.4-3.2-4.2-5.4c-1.9-5.4-1.9-11.4,0-16.8c0.9-2.2,2.3-4.1,4.2-5.5c1.9-1.2,4.1-1.8,6.3-1.8
								c3.4-0.1,6.7,1.4,8.8,4.1c2.2,2.8,3.3,6.7,3.3,11.6S253.6,81.5,251.4,84.3z"/>
							<path class="st0" d="M308.2,90.6v-1.5c-1.4,1.7-2.9,3.2-4.6,4.6c-1.6,1.2-3.4,2.2-5.3,2.8c-2.1,0.6-4.3,0.9-6.5,0.9
								c-2.7,0.1-5.5-0.6-7.9-1.8c-2.3-1.2-4.2-2.9-5.5-5.1c-1.5-2.6-2.2-6.3-2.2-11.1V55.2c0-2.4,0.5-4.2,1.6-5.4
								c1.1-1.2,2.7-1.9,4.4-1.8c1.7,0,3.3,0.6,4.5,1.8c1.1,1.2,1.6,3,1.6,5.4v19.5c0,2.4,0.2,4.8,0.8,7.2c0.3,1.7,1.2,3.3,2.5,4.5
								c1.4,1.1,3.2,1.7,5,1.6c2.1,0,4.1-0.6,5.8-1.8c1.8-1.2,3.2-2.8,4-4.8c0.7-1.7,1-5.5,1-11.3V55.2c-0.1-1.9,0.5-3.9,1.7-5.4
								c1.1-1.2,2.7-1.8,4.4-1.8c1.7-0.1,3.3,0.6,4.4,1.8c1.2,1.5,1.8,3.5,1.7,5.4v35.3c0.1,1.9-0.5,3.7-1.6,5.2
								c-2.1,2.3-5.7,2.4-7.9,0.3c-0.1-0.1-0.2-0.2-0.3-0.3C308.6,94.3,308.1,92.4,308.2,90.6z"/>
							<path class="st0" d="M342.8,54.7v1.5c1.8-2.6,4.2-4.7,7-6.2c5.5-2.7,11.9-2.7,17.4,0.1c2.5,1.3,4.4,3.4,5.6,5.9
								c0.8,1.5,1.4,3.1,1.6,4.8c0.3,2.2,0.4,4.4,0.4,6.6v22.7c0.1,2-0.5,3.9-1.7,5.5c-1.1,1.3-2.7,2-4.4,1.9
								c-1.7,0-3.3-0.7-4.4-1.9c-1.2-1.6-1.8-3.5-1.7-5.5V69.8c0-4-0.5-7.1-1.7-9.2s-3.3-3.2-6.6-3.2c-2.2,0-4.3,0.6-6,1.9
								c-1.8,1.4-3.1,3.3-3.9,5.4c-0.6,1.8-0.9,5.2-0.9,10.1v15.3c0,2.4-0.5,4.3-1.7,5.5c-1.1,1.3-2.7,2-4.4,1.9
								c-1.7,0-3.3-0.7-4.4-1.9c-1.2-1.6-1.8-3.5-1.7-5.5V54.9c-0.1-1.9,0.5-3.7,1.6-5.2c1-1.2,2.5-1.8,4.1-1.7c1,0,2,0.2,2.9,0.7
								c0.9,0.5,1.7,1.3,2.1,2.3C342.6,52.2,342.8,53.4,342.8,54.7z"/>
							<path class="st0" d="M430.6,82.4c-0.1,1.7-0.6,3.4-1.4,4.9c-1.1,1.9-2.5,3.6-4.2,4.9c-2.1,1.7-4.4,3-7,3.8
								c-3.1,1-6.3,1.4-9.5,1.4c-7.6,0-13.4-2.2-17.6-6.6s-6.4-10.2-6.4-17.6c-0.1-4.6,0.9-9.1,2.9-13.3c1.8-3.7,4.8-6.9,8.4-8.9
								c4-2.2,8.5-3.2,13.1-3.1c3-0.1,5.9,0.4,8.7,1.4c2.4,0.8,4.7,2,6.7,3.5c1.7,1.3,3.1,2.9,4.2,4.7c0.8,1.4,1.3,3,1.4,4.6
								c0,1.4-0.6,2.8-1.6,3.7c-1.1,1-2.5,1.5-3.9,1.5c-0.9,0.1-1.8-0.2-2.6-0.7c-0.8-0.8-1.6-1.7-2.2-2.6c-1.3-1.9-2.9-3.7-4.7-5.1
								c-1.9-1.1-4-1.7-6.2-1.6c-3.4-0.1-6.7,1.5-8.7,4.2c-2.2,2.8-3.3,6.6-3.3,11.5c0,2.1,0.3,4.3,0.9,6.3c0.5,1.8,1.3,3.4,2.4,4.9
								c2.1,2.7,5.4,4.3,8.9,4.1c2.2,0.1,4.4-0.5,6.3-1.7c1.9-1.3,3.5-3.1,4.6-5.1c0.6-1.2,1.4-2.3,2.4-3.2c0.9-0.8,2-1.2,3.2-1.2
								c1.4,0,2.8,0.6,3.7,1.7C430,79.8,430.6,81.1,430.6,82.4z"/>
							<path class="st0" d="M483.3,81.8c-0.8-0.7-1.9-1-3-1c-1-0.1-1.9,0.2-2.7,0.8l-3.7,3.4c-1,0.8-2,1.6-3.1,2.3
								c-1.1,0.7-2.3,1.2-3.5,1.6c-1.3,0.3-2.7,0.5-4,0.5c-2.1,0-4.2-0.5-6-1.6c-1.8-1.2-3.3-2.8-4.3-4.8c-1.1-2.3-1.7-4.8-1.7-7.3
								h23.9c2.5,0.1,5.1-0.3,7.4-1.3c1.7-1,2.6-2.9,2.6-6c-0.1-3.4-0.9-6.7-2.5-9.7c-1.8-3.3-4.5-6-7.7-7.8
								c-3.7-2.1-7.9-3.1-12.2-3c-3.4,0-6.8,0.5-10,1.7c-2.9,1.1-5.5,2.8-7.6,5.1c-2.1,2.3-3.7,5-4.7,7.9c-1.1,3.2-1.6,6.6-1.6,10
								c0,7.7,2.2,13.7,6.5,18.2s10.4,6.7,18.3,6.7c3.1,0,6.1-0.4,9-1.4c2.4-0.7,4.6-1.8,6.6-3.3c1.5-1.2,2.9-2.7,3.9-4.3
								c0.8-1.1,1.2-2.4,1.3-3.8C484.6,83.6,484.1,82.5,483.3,81.8z M454.9,59.5c1.9-2.1,4.7-3.2,7.5-3.1c2.9-0.1,5.7,1,7.7,3.1
								c1.9,2,3,5.1,3.3,9.3h-22.1C451.8,64.7,452.9,61.6,454.9,59.5z"/>
						</g>
					</g>
				</g>
			</g>
			<g id="Layer_2-3">
				<g id="Layer_1-2-3">
					<g>
						<g id="Layer_2-2-3">
							<g id="Layer_4-2">
								<g>
									<path class="st1" d="M34.4,79.5h0.2l-5.2,13.2c-0.5,1.1-1.2,2.1-2.1,2.9c-3.1,2.7-7.8,2.3-10.4-0.8c0,0,0-0.1-0.1-0.1
										c-1.2-1.2-1.8-2.9-1.8-4.6v-0.2c0-0.9,0.2-1.8,0.5-2.7l5.2-13l0,0c1.2,1.1,2.8,1.7,4.5,1.8H30c1,1.2,2.2,2.2,3.5,3
										L34.4,79.5z"/>
									<path class="st1" d="M63.7,22.7l8,20.2L71,43.2l-12.4,4.7l-0.8,0.3l0,0l-5.4-13.6L51,38.3l-6,14.9L42.9,54l-1,0.4
										l-15.8,6.1L41,23.2V23l0.4-0.9v-0.2c2.8-6,10-8.7,16-5.9c2.7,1.3,4.8,3.5,6,6.3L63.7,22.7z"/>
									<path class="st1" d="M89.8,90c0,3.9-3.1,7.2-7,7.4h-0.5c-1.5,0-2.9-0.4-4.1-1.3c-1.2-0.8-2.2-2-2.7-3.4l-6.2-15.5l11.3,0.4
										H82c1-0.1,1.9-0.5,2.7-1l0,0l0.3-0.2l3.9,10l0.2,0.5l0,0l0.2,0.4c0.2,0.6,0.4,1.2,0.5,1.8l0,0L89.8,90z"/>
									<g>
										<path class="st1" d="M85.1,70.6h-0.2c-0.3,0-0.5,0.1-0.7,0.3l0,0c-0.3,0.4-0.6,0.8-0.9,1.2l-0.6,0.6
											c-0.5,0.3-1,0.5-1.5,0.6h-0.4c-3.4,0-7-5.6-8.1-13c-0.6-3.7-0.4-7.4,0.7-11l0.5-1.1c0.6-1.3,1.7-2.2,3.1-2.5h0.5
											c1.6,0.2,3,1,3.9,2.3h0.1c0.3,0.4,0.9,0.4,1.3,0c0,0,0,0,0,0c0.1-0.2,0.2-0.4,0.2-0.6c0-0.2,0-0.4-0.1-0.5h-0.1
											c-1.6-2.1-3.4-3.3-5.3-3.3l-1.4,0.2H76l-3.4,1.3l-0.8,0.3l-12.3,4.8l-0.8,0.3l-14.9,5.8l-1,0.4l-16.9,6.5l-1,0.4l-0.7,0.3
											l-0.9,0.3c-2.4,1.2-3.4,4.2-2.2,6.6l0.6,0.9l0.6,0.6c0.8,0.8,1.9,1.2,3,1.3h6c0.8,1.3,2,2.4,3.4,3.2l0.8,0.4
											c1.6,0.7,3.4,1.1,5.2,1.1c3.5,0.1,6.9-1.4,9.1-4.2l18.5,0.6h0.9L80.6,75h1.1c0.6-0.1,1.1-0.3,1.6-0.7h0.1l0.6-0.5
											c0.6-0.6,1.1-1.3,1.5-2l0.2-0.3C85.8,71.1,85.5,70.7,85.1,70.6z M45.5,74.7c-0.1,0.2-0.2,0.4-0.4,0.5
											c-2.8,1.4-6,1.4-8.8,0l-0.7-0.5h-0.2c-0.1-0.1-0.2-0.2-0.2-0.3l0,0c0-0.2,0.2-0.4,0.4-0.4h0h1.2l8.1,0.2
											c0.2,0,0.5,0.2,0.5,0.4h0.1V74.7z"/>
										<path class="st1" d="M45.4,74.5"/>
										<path class="st1" d="M45.1,75.2c-2.8,1.4-6,1.4-8.8,0l-0.7-0.5h-0.2c-0.1-0.1-0.2-0.2-0.2-0.3s0.1,0.2,0.2,0.3h0.2
											l0.7,0.5C39.1,76.6,42.3,76.6,45.1,75.2c0.2-0.1,0.3-0.3,0.4-0.5C45.4,74.9,45.3,75.1,45.1,75.2z M45.1,75.2
											c-2.8,1.4-6,1.4-8.8,0l-0.7-0.5h-0.2c-0.1-0.1-0.2-0.2-0.2-0.3s0.1,0.2,0.2,0.3h0.2l0.7,0.5
											C39.1,76.6,42.3,76.6,45.1,75.2c0.2-0.1,0.3-0.3,0.4-0.5C45.4,74.9,45.3,75.1,45.1,75.2z M45.1,75.2c-2.8,1.4-6,1.4-8.8,0
											l-0.7-0.5h-0.2c-0.1-0.1-0.2-0.2-0.2-0.3s0.1,0.2,0.2,0.3h0.2l0.7,0.5C39.1,76.6,42.3,76.6,45.1,75.2
											c0.2-0.1,0.3-0.3,0.4-0.5C45.4,74.9,45.3,75.1,45.1,75.2z"/>
									</g>
									<path class="st1" d="M80.7,54.1c1.4,3.4,1.9,7.2,1.4,10.9c0,0.4,0.2,0.8,0.6,1l0,0c0.4,0.2,0.9,0,1.2-0.4l0,0
										c0.1-0.1,0.1-0.2,0.1-0.3c0.6-4.1,0.1-8.2-1.6-12c-0.3-0.4-0.8-0.6-1.3-0.4l0,0l-0.2,0.2l0,0
										C80.6,53.3,80.5,53.8,80.7,54.1z"/>
									<path class="st1" d="M86.5,49.2c3.4,5.7,4.3,12.5,2.6,18.9c-0.1,0.5,0.1,1.1,0.6,1.4l0,0c0.6,0.2,1.3,0,1.6-0.5l0,0v-0.2
										c2.1-7,1.1-14.6-2.8-20.8c-0.3-0.5-0.9-0.7-1.5-0.5c0,0-0.1,0-0.1,0.1h-0.2C86.2,48,86.1,48.7,86.5,49.2z"/>
									<path class="st1" d="M93.1,43.9c5.8,7.9,7.3,18.2,3.8,27.4c-0.4,0.7,0,1.6,0.7,2l0,0c0.8,0.4,1.7,0.1,2.2-0.6
										c0,0,0,0,0-0.1h0.1c4.2-10.2,2.6-21.9-4.3-30.6c-0.5-0.7-1.4-0.8-2.1-0.3c0,0-0.1,0.1-0.1,0.1h-0.1
										C92.7,42.3,92.6,43.3,93.1,43.9z"/>
								</g>
							</g>
						</g>
						<line class="st2" x1="8.5" y1="70" x2="89.8" y2="38.5"/>
						<line class="st2" x1="100.2" y1="75.7" x2="8.4" y2="73.1"/>
						<line class="st2" x1="10.6" y1="99.6" x2="46.5" y2="9.2"/>
						<line class="st2" x1="26.6" y1="99.6" x2="62.5" y2="9.2"/>
						<line class="st2" x1="42.3" y1="9.2" x2="78.2" y2="99.6"/>
						<line class="st2" x1="58.3" y1="9.2" x2="94.2" y2="99.6"/>
						<circle class="st2" cx="40.7" cy="66.4" r="12"/>
						<circle class="st2" cx="40.7" cy="66.4" r="9.8"/>
						<circle class="st2" cx="25.6" cy="68.6" r="4.9"/>
					</g>
				</g>
			</g>
			<g>
				<line class="st3" x1="0.1" y1="47.9" x2="500.1" y2="47.9"/>
				<g>
					<polyline class="st4" points="500.1,109.7 500.1,112.2 497.6,112.2 					"/>
					<line class="st5" x1="492.7" y1="112.2" x2="5" y2="112.2"/>
					<polyline class="st4" points="2.5,112.2 0.1,112.2 0.1,109.7 					"/>
					<line class="st6" x1="0.1" y1="104.6" x2="0.1" y2="5.1"/>
					<polyline class="st4" points="0.1,2.5 0.1,0.1 2.5,0.1 					"/>
					<line class="st5" x1="7.4" y1="0.1" x2="495.2" y2="0.1"/>
					<polyline class="st4" points="497.6,0.1 500.1,0.1 500.1,2.5 					"/>
					<line class="st6" x1="500.1" y1="7.6" x2="500.1" y2="107.2"/>
				</g>
				<line class="st3" x1="15" y1="0.1" x2="15" y2="112.2"/>
				<line class="st3" x1="485.2" y1="0.1" x2="485.2" y2="112.2"/>
				<line class="st3" x1="0.1" y1="97.5" x2="500.1" y2="97.5"/>
				<line class="st3" x1="0.1" y1="15" x2="500.1" y2="15"/>
			</g>
		</g>
	</g>
</g>
</svg>
