<svg xmlns="http://www.w3.org/2000/svg" viewBox="0 0 72 72">
  <defs>
    <style>
      .cls-1 {
        fill: #fff;
      }

      .cls-2 {
        fill: #f29433;
      }

      .cls-2, .cls-3 {
        fill-rule: evenodd;
      }

      .cls-3 {
        fill: #0069a2;
      }
    </style>
  </defs>
  <g id="Layer_2" data-name="Layer 2">
    <g id="Layer_1-2" data-name="Layer 1">
      <g>
        <rect class="cls-1" width="72" height="72" rx="13"/>
        <g>
          <path class="cls-2" d="M42,23.19H19.27c-4.08.32-3.43,5.76-.42,5.72h10.8C24.87,33.42,14.21,40.25,9.54,44.69c-1.8,1.71-1.7,6.71,3.55,5.56,2-1.1,11-8.42,12.19-9.69C25.9,56.12,43.4,63.42,56.54,54.29c7-4.85,9.39-17.19,3.93-23.26-4.31-4.84-12.16-9.64-21.56-17.44-1.49-1.23-6-.6-4.47,3.05A78,78,0,0,0,42,23.2Zm2.31,5.48c6.47,0,11.78,4.77,11.78,10.57S50.74,49.82,44.27,49.82,32.49,45.09,32.49,39.24,37.75,28.67,44.27,28.67Z"/>
          <path class="cls-3" d="M44.68,32.08A6.9,6.9,0,1,1,37.37,39,7.12,7.12,0,0,1,44.68,32.08Z"/>
        </g>
      </g>
    </g>
  </g>
</svg>
