<svg xmlns="http://www.w3.org/2000/svg" xmlns:xlink="http://www.w3.org/1999/xlink" viewBox="0 0 35 35">
  <defs>
    <linearGradient id="linear-gradient" x1="2.43" y1="32.91" x2="26.94" y2="9.47" gradientTransform="matrix(1, 0, 0, -1, 0, 36)" gradientUnits="userSpaceOnUse">
      <stop offset="0" stop-color="#0074f8"/>
      <stop offset="1" stop-color="#e007b5"/>
    </linearGradient>
    <linearGradient id="linear-gradient-2" x1="3.13" y1="33.64" x2="27.64" y2="10.21" xlink:href="#linear-gradient"/>
  </defs>
  <g id="Layer_2" data-name="Layer 2">
    <g id="Layer_1-2" data-name="Layer 1">
      <g>
        <path d="M7,1H28a6,6,0,0,1,6,6V28a6,6,0,0,1-6,6H7a6,6,0,0,1-6-6V7A6,6,0,0,1,7,1Z" fill="#fff"/>
        <g id="Layer_2-2" data-name="Layer 2">
          <g id="Layer_1-2-2" data-name="Layer 1-2">
            <path d="M28,35H7a7,7,0,0,1-7-7V7A7,7,0,0,1,7,0H28a7,7,0,0,1,7,7h0V28A7,7,0,0,1,28,35ZM7,2A5,5,0,0,0,2,7V28a5,5,0,0,0,5,5H28a5,5,0,0,0,5-5V7a5,5,0,0,0-5-5Z" fill="url(#linear-gradient)"/>
            <path d="M8.4,20.3V11.9a2,2,0,0,1,1.8-2.2H24.4a2,2,0,0,1,2.2,1.8v8.8a2,2,0,0,1-1.8,2.2H19.9l.2,1.3h1a.8.8,0,0,1,.8.7.9.9,0,0,1-.8.8H13.9a.9.9,0,0,1-.8-.8.8.8,0,0,1,.8-.7h1l.2-1.3H10.6a2,2,0,0,1-2.2-1.8ZM24.6,19c.2,0,.3-.1.3-.4V12.1c0-.5-.2-.7-.7-.7H10.8c-.5,0-.7.2-.7.7v6.5c0,.3.1.4.3.4Zm-6.3,2a.8.8,0,1,0-.8.8h0A.9.9,0,0,0,18.3,21Z" fill="url(#linear-gradient-2)"/>
          </g>
        </g>
      </g>
    </g>
  </g>
</svg>
