<svg xmlns="http://www.w3.org/2000/svg" viewBox="0 0 35 35"><defs><style>.cls-1{fill:#fff;}.cls-2{fill:#f22f55;}</style></defs><g id="Layer_2" data-name="Layer 2"><g id="Layer_1-2" data-name="Layer 1"><rect class="cls-1" x="1" y="1" width="33" height="33" rx="6"/><path class="cls-2" d="M28,35H7a7,7,0,0,1-7-7V7A7,7,0,0,1,7,0H28a7,7,0,0,1,7,7V28A7,7,0,0,1,28,35ZM7,2A5,5,0,0,0,2,7V28a5,5,0,0,0,5,5H28a5,5,0,0,0,5-5V7a5,5,0,0,0-5-5Z"/><path class="cls-2" d="M8.4,20.3V11.9a2,2,0,0,1,2.2-2.2H24.4a2,2,0,0,1,2.2,2.2v8.4a2,2,0,0,1-2.2,2.2H19.9l.2,1.3h1a.8.8,0,0,1,.8.7.9.9,0,0,1-.8.8H13.9a.9.9,0,0,1-.8-.8.8.8,0,0,1,.8-.7h1l.2-1.3H10.6A2,2,0,0,1,8.4,20.3ZM24.6,19c.2,0,.3-.1.3-.4V12.1c0-.5-.2-.7-.7-.7H10.8c-.5,0-.7.2-.7.7v6.5c0,.3.1.4.3.4Zm-6.3,2a.8.8,0,1,0-.8.8A.9.9,0,0,0,18.3,21Z"/></g></g></svg>