<svg xmlns="http://www.w3.org/2000/svg" viewBox="0 0 72 71">
  <defs>
    <style>
      .cls-1 {
        fill: #013301;
      }

      .cls-2, .cls-3 {
        fill: #3f6;
      }

      .cls-2 {
        fill-rule: evenodd;
      }
    </style>
  </defs>
  <g id="Layer_2" data-name="Layer 2">
    <g id="Layer_1-2" data-name="Layer 1">
      <g>
        <rect class="cls-1" width="72" height="71" rx="11.25"/>
        <g>
          <path class="cls-2" d="M12.75,20.09h0c1.9-.06,5-.09,9.26-.09,5.12,0,9.11,1.39,11.87,4.25a15,15,0,0,1,4.11,11,18.6,18.6,0,0,1-1,6.28h0a13,13,0,0,1-2.72,4.58A13.92,13.92,0,0,1,30.41,49a18.24,18.24,0,0,1-4.53,1.66h0a23.33,23.33,0,0,1-4.64.46q-4.3,0-8.44-.09a.75.75,0,0,1-.64-.34,1.06,1.06,0,0,1-.16-.6V21a1,1,0,0,1,.18-.57.84.84,0,0,1,.54-.32Zm8.66,25.75c3.13,0,5.48-.86,7.15-2.53s2.54-4.31,2.54-8h0c0-3.42-.78-5.89-2.32-7.52a8.86,8.86,0,0,0-6.7-2.48c-1.56,0-2.64,0-3.27.05V45.78C19.66,45.82,20.52,45.84,21.41,45.84Z"/>
          <path class="cls-3" d="M46.62,29.75a5.38,5.38,0,0,0-.22-.9v-.06h0a1.23,1.23,0,0,0-1-.62H41a.76.76,0,0,0-.56.18.8.8,0,0,0-.27.53,1.31,1.31,0,0,0,0,.28c.12,1.23.18,2.81.18,4.76V50.11a1,1,0,0,0,.22.66.88.88,0,0,0,.68.28h4.93a1,1,0,0,0,.66-.22.92.92,0,0,0,.29-.68V34.84a4.88,4.88,0,0,1,3.72-1.64,2.84,2.84,0,0,1,2.36,1A4.45,4.45,0,0,1,54,37.09v13a.87.87,0,0,0,.23.64.84.84,0,0,0,.61.3h5a.86.86,0,0,0,.68-.28,1,1,0,0,0,.22-.66V37.19c0-3.27-.76-5.74-2.42-7.26a8.06,8.06,0,0,0-5.66-2.21A9.8,9.8,0,0,0,46.62,29.75Z"/>
        </g>
      </g>
    </g>
  </g>
</svg>
