<svg xmlns="http://www.w3.org/2000/svg" xmlns:xlink="http://www.w3.org/1999/xlink" viewBox="0 0 35 35">
  <defs>
    <linearGradient id="linear-gradient" x1="3.73" y1="32.98" x2="26.41" y2="9.13" gradientTransform="matrix(1, 0, 0, -1, 0, 36)" gradientUnits="userSpaceOnUse">
      <stop offset="0" stop-color="#0074f8"/>
      <stop offset="1" stop-color="#e007b5"/>
    </linearGradient>
    <linearGradient id="linear-gradient-2" x1="19.89" y1="34.82" x2="20.32" y2="2.57" xlink:href="#linear-gradient"/>
    <linearGradient id="linear-gradient-3" x1="10.77" y1="34.7" x2="11.2" y2="2.45" xlink:href="#linear-gradient"/>
    <linearGradient id="linear-gradient-4" x1="19.74" y1="34.82" x2="20.17" y2="2.57" xlink:href="#linear-gradient"/>
  </defs>
  <g id="Layer_2" data-name="Layer 2">
    <g id="Layer_1-2" data-name="Layer 1">
      <g>
        <path d="M28,2H7A5,5,0,0,0,2,7V28a5,5,0,0,0,5,5H28a5,5,0,0,0,5-5V7A5,5,0,0,0,28,2ZM16.2,17.6l5.9-6.8a1.1,1.1,0,0,1,1.5.4,1.1,1.1,0,0,1,0,1.1L17.7,19a.9.9,0,0,1-.7.3.8.8,0,0,1-.7-.2A1.1,1.1,0,0,1,16.2,17.6Zm-2.3,5.7a1,1,0,0,1-1.4,0L8.3,19.1a1,1,0,0,1,1.2-1.6l.2.2,4.2,4.2A1.2,1.2,0,0,1,13.9,23.3ZM27.8,12.2l-9.7,11a1.2,1.2,0,0,1-.8.4h0a.9.9,0,0,1-.7-.3l-4.1-4.2a1,1,0,0,1,1.2-1.6h0l.2.2,3.4,3.4,8.9-10.3a1.1,1.1,0,0,1,1.5,0A1.1,1.1,0,0,1,27.8,12.2Z" fill="#fff"/>
        <g id="Layer_2-2" data-name="Layer 2">
          <g>
            <path d="M28,0H7A7,7,0,0,0,0,7V28a7,7,0,0,0,7,7H28a7,7,0,0,0,7-7V7A7,7,0,0,0,28,0Zm5,28a5,5,0,0,1-5,5H7a5,5,0,0,1-5-5V7A5,5,0,0,1,7,2H28a5,5,0,0,1,5,5Z" fill="url(#linear-gradient)"/>
            <path d="M26.2,10.8,17.3,21.1l-3.4-3.4-.2-.2a1,1,0,0,0-1.2,1.6l4.1,4.2a.9.9,0,0,0,.7.3,1.2,1.2,0,0,0,.8-.4l9.7-11a1.1,1.1,0,0,0-.1-1.4A1.1,1.1,0,0,0,26.2,10.8Z" fill="url(#linear-gradient-2)"/>
            <path d="M9.7,17.7l-.2-.2a1,1,0,0,0-1.2,1.6l4.2,4.2a1,1,0,0,0,1.4,0,1.2,1.2,0,0,0,0-1.4Z" fill="url(#linear-gradient-3)"/>
            <path d="M17,19.2a.9.9,0,0,0,.7-.3l5.9-6.7a1,1,0,0,0,0-1.4,1.1,1.1,0,0,0-1.5,0l-5.9,6.8a1,1,0,0,0,.1,1.4A.8.8,0,0,0,17,19.2Z" fill="url(#linear-gradient-4)"/>
          </g>
        </g>
      </g>
    </g>
  </g>
</svg>
