<svg xmlns="http://www.w3.org/2000/svg" viewBox="0 0 35 35"><defs><style>.cls-1,.cls-2{fill:#f22f55;}.cls-1{fill-rule:evenodd;}.cls-3{fill:#fff;}</style></defs><g id="Layer_2" data-name="Layer 2"><g id="Layer_1-2" data-name="Layer 1"><g id="Layer_2-2" data-name="Layer 2"><g id="Layer_1-2-2" data-name="Layer 1-2"><path class="cls-1" d="M13.9,23.3a1,1,0,0,1-1.4,0L8.3,19.1a1,1,0,0,1,1.2-1.6l.2.2,4.2,4.2A1.2,1.2,0,0,1,13.9,23.3Z"/><path class="cls-1" d="M23.6,12.2l-5.9,6.7a.9.9,0,0,1-.7.3,1,1,0,0,1-.7-.2,1,1,0,0,1-.1-1.4l5.9-6.8a1.1,1.1,0,0,1,1.5,0A1,1,0,0,1,23.6,12.2Z"/><path class="cls-1" d="M27.8,12.2l-9.7,11a1.2,1.2,0,0,1-.8.4h0a.9.9,0,0,1-.7-.3l-4.1-4.2a1,1,0,0,1,1.2-1.6l.2.2,3.4,3.4,8.9-10.3a1.1,1.1,0,0,1,1.5,0A1.1,1.1,0,0,1,27.8,12.2Z"/><path class="cls-1" d="M28,1H7A6,6,0,0,0,1,7V28a6,6,0,0,0,6,6H28a6,6,0,0,0,6-6V7A6,6,0,0,0,28,1Zm5,27a5,5,0,0,1-5,5H7a5,5,0,0,1-5-5V7A5,5,0,0,1,7,2H28a5,5,0,0,1,5,5Z"/><path class="cls-2" d="M28,0H7A7,7,0,0,0,0,7V28a7,7,0,0,0,7,7H28a7,7,0,0,0,7-7V7A7,7,0,0,0,28,0Zm5,28a5,5,0,0,1-5,5H7a5,5,0,0,1-5-5V7A5,5,0,0,1,7,2H28a5,5,0,0,1,5,5Z"/><path class="cls-3" d="M28,2H7A5,5,0,0,0,2,7V28a5,5,0,0,0,5,5H28a5,5,0,0,0,5-5V7A5,5,0,0,0,28,2ZM16.2,17.6l5.9-6.8a1.1,1.1,0,0,1,1.5,1.5L17.7,19a.9.9,0,0,1-.7.3,1,1,0,0,1-.7-.2A1.1,1.1,0,0,1,16.2,17.6Zm-2.3,5.7a1,1,0,0,1-1.4,0L8.3,19.1a1,1,0,0,1,1.2-1.6l.2.2,4.2,4.2A1.2,1.2,0,0,1,13.9,23.3ZM27.8,12.2l-9.7,11a1.2,1.2,0,0,1-.8.4h0a.9.9,0,0,1-.7-.3l-4.1-4.2a1,1,0,0,1,1.2-1.6l.2.2,3.4,3.4,8.9-10.3a1.1,1.1,0,0,1,1.5,0A1.1,1.1,0,0,1,27.8,12.2Z"/><path class="cls-2" d="M27.8,12.2l-9.7,11a1.2,1.2,0,0,1-.8.4h0a.9.9,0,0,1-.7-.3l-4.1-4.2a1,1,0,0,1,1.2-1.6l.2.2,3.4,3.4,8.9-10.3a1.1,1.1,0,0,1,1.5,0A1.1,1.1,0,0,1,27.8,12.2Z"/><path class="cls-2" d="M13.9,23.3a1,1,0,0,1-1.4,0L8.3,19.1a1,1,0,0,1,1.2-1.6l.2.2,4.2,4.2A1.2,1.2,0,0,1,13.9,23.3Z"/><path class="cls-2" d="M23.6,12.2l-5.9,6.7a.9.9,0,0,1-.7.3,1,1,0,0,1-.7-.2,1,1,0,0,1-.1-1.4l5.9-6.8a1.1,1.1,0,0,1,1.5,0A1,1,0,0,1,23.6,12.2Z"/></g></g></g></g></svg>