<svg width="32" height="32" viewBox="0 0 32 32" fill="none" xmlns="http://www.w3.org/2000/svg">
<path d="M13.1431 0.5H2C1.17139 0.5 0.5 1.17139 0.5 2V13.1431C0.5 13.9717 1.17139 14.6431 2 14.6431H13.1431C13.9717 14.6431 14.6431 13.9717 14.6431 13.1431V2C14.6431 1.17139 13.9717 0.5 13.1431 0.5ZM11.6431 11.6431H3.5V3.5H11.6431V11.6431ZM30 0.5H18.8574C18.0293 0.5 17.3574 1.17139 17.3574 2V13.1431C17.3574 13.9717 18.0293 14.6431 18.8574 14.6431H30C30.8281 14.6431 31.5 13.9717 31.5 13.1431V2C31.5 1.17139 30.8281 0.5 30 0.5ZM28.5 11.6431H20.3574V3.5H28.5V11.6431ZM13.1431 17.3569H2C1.17139 17.3569 0.5 18.0283 0.5 18.8569V30C0.5 30.8286 1.17139 31.5 2 31.5H13.1431C13.9717 31.5 14.6431 30.8286 14.6431 30V18.8569C14.6431 18.0283 13.9717 17.3569 13.1431 17.3569ZM11.6431 28.5H3.5V20.3569H11.6431V28.5ZM24.4287 17.3569C20.5293 17.3569 17.3574 20.5293 17.3574 24.4287C17.3574 28.3276 20.5293 31.5 24.4287 31.5C28.3281 31.5 31.5 28.3276 31.5 24.4287C31.5 20.5293 28.3281 17.3569 24.4287 17.3569ZM24.4287 28.5C22.1836 28.5 20.3574 26.6738 20.3574 24.4287C20.3574 22.1836 22.1836 20.3569 24.4287 20.3569C26.6738 20.3569 28.5 22.1836 28.5 24.4287C28.5 26.6738 26.6738 28.5 24.4287 28.5Z" fill="#029491"/>
</svg>
