<svg width="136" height="136" viewBox="0 0 136 136" fill="none" xmlns="http://www.w3.org/2000/svg">
<line y1="120.5" x2="136" y2="120.5" stroke="#4464AF"/>
<line y1="105.5" x2="136" y2="105.5" stroke="#4464AF"/>
<line y1="90.5" x2="136" y2="90.5" stroke="#4464AF"/>
<line y1="75.5" x2="136" y2="75.5" stroke="#4464AF"/>
<line y1="60.5" x2="136" y2="60.5" stroke="#4464AF"/>
<line y1="45.5" x2="136" y2="45.5" stroke="#4464AF"/>
<line y1="30.5" x2="136" y2="30.5" stroke="#4464AF"/>
<line y1="15.5" x2="136" y2="15.5" stroke="#4464AF"/>
<line x1="15.5" y1="2.20176e-08" x2="15.5" y2="136" stroke="#4464AF"/>
<line x1="30.5" y1="2.20176e-08" x2="30.5" y2="136" stroke="#4464AF"/>
<line x1="45.5" y1="2.20176e-08" x2="45.5" y2="136" stroke="#4464AF"/>
<line x1="60.5" y1="2.20176e-08" x2="60.5" y2="136" stroke="#4464AF"/>
<line x1="75.5" y1="2.20176e-08" x2="75.5" y2="136" stroke="#4464AF"/>
<line x1="90.5" y1="2.20176e-08" x2="90.5" y2="136" stroke="#4464AF"/>
<line x1="105.5" y1="2.20176e-08" x2="105.5" y2="136" stroke="#4464AF"/>
<line x1="120.5" y1="2.20176e-08" x2="120.5" y2="136" stroke="#4464AF"/>
<rect x="31" y="31" width="14" height="14" fill="#144FC3"/>
<rect x="16" y="46" width="14" height="14" fill="#144FC3"/>
<rect x="16" y="61" width="14" height="14" fill="#144FC3"/>
<rect x="31" y="76" width="14" height="14" fill="#144FC3"/>
<rect x="46" y="91" width="14" height="14" fill="#144FC3"/>
<rect x="61" y="106" width="14" height="14" fill="#144FC3"/>
<rect x="76" y="91" width="14" height="14" fill="#144FC3"/>
<rect x="91" y="76" width="14" height="14" fill="#144FC3"/>
<rect x="106" y="61" width="14" height="14" fill="#144FC3"/>
<rect x="106" y="46" width="14" height="14" fill="#144FC3"/>
<rect x="91" y="31" width="14" height="14" fill="#144FC3"/>
<rect x="76" y="46" width="14" height="14" fill="#144FC3"/>
<rect x="46" y="46" width="14" height="14" fill="#144FC3"/>
<rect x="61" y="61" width="14" height="14" fill="#144FC3"/>
</svg>
