<svg xmlns="http://www.w3.org/2000/svg" viewBox="0 0 44 44">
  <defs>
    <style>
      .cls-1 {
        fill: #f22f55;
      }

      .cls-2 {
        fill: #fff;
      }
    </style>
  </defs>
  <g id="Layer_2" data-name="Layer 2">
    <g id="Layer_1-2" data-name="Layer 1">
      <g>
        <circle id="group-5-b" class="cls-1" cx="22" cy="22" r="22"/>
        <path class="cls-2" d="M22,34.54a1.89,1.89,0,0,1-1.08-.34A35,35,0,0,1,13,27.42,13.93,13.93,0,0,1,9.5,18.23a6.78,6.78,0,0,1,6.68-6.77,7.3,7.3,0,0,1,5.55,2.74.36.36,0,0,0,.51,0l0,0a7.3,7.3,0,0,1,5.55-2.74,6.78,6.78,0,0,1,6.68,6.77A14,14,0,0,1,31,27.43a35.29,35.29,0,0,1-7.9,6.77A1.89,1.89,0,0,1,22,34.54Z"/>
      </g>
    </g>
  </g>
</svg>
