<svg xmlns="http://www.w3.org/2000/svg" viewBox="0 0 72 71">
  <defs>
    <style>
      .cls-1 {
        fill: #300;
      }

      .cls-2 {
        fill: #ff9a00;
      }
    </style>
  </defs>
  <g id="Layer_2" data-name="Layer 2">
    <g id="Layer_1-2" data-name="Layer 1">
      <g>
        <path class="cls-1" d="M12.75,0h46.5A12.81,12.81,0,0,1,72,12.9V58.1A12.81,12.81,0,0,1,59.25,71H12.75A12.81,12.81,0,0,1,0,58.1V12.9A12.81,12.81,0,0,1,12.75,0Z"/>
        <path class="cls-2" d="M36.19,44.82H25l-2.28,7a.53.53,0,0,1-.57.42H16.54c-.33,0-.42-.18-.33-.54l9.66-27.81c.09-.3.18-.63.3-1A10.48,10.48,0,0,0,26.35,21a.3.3,0,0,1,.24-.33h7.77c.24,0,.36.09.39.24l11,30.9c.09.33,0,.48-.3.48H39.13a.45.45,0,0,1-.48-.33Zm-9.42-6.09h7.62c-.18-.63-.42-1.38-.69-2.16s-.54-1.68-.81-2.58-.57-1.83-.87-2.76-.57-1.8-.81-2.67-.45-1.62-.66-2.34h-.06a36.83,36.83,0,0,1-1,3.87c-.45,1.44-.9,2.94-1.38,4.44s-.87,2.94-1.32,4.2ZM52.24,25.8a3.71,3.71,0,0,1-2.67-1.05,3.9,3.9,0,0,1-1-2.76,3.53,3.53,0,0,1,1.08-2.67,3.84,3.84,0,0,1,2.67-1.05A3.59,3.59,0,0,1,55,19.32,3.79,3.79,0,0,1,56,22,3.8,3.8,0,0,1,55,24.75,3.53,3.53,0,0,1,52.24,25.8Zm-3.36,26V28.74c0-.3.12-.42.39-.42h5.94c.27,0,.39.15.39.42v23.1c0,.33-.12.48-.39.48H49.33A.42.42,0,0,1,48.88,51.84Z"/>
      </g>
    </g>
  </g>
</svg>
