<svg xmlns="http://www.w3.org/2000/svg" viewBox="0 0 72 72">
  <defs>
    <style>
      .cls-1 {
        fill: #dc395f;
      }

      .cls-2 {
        fill: #fff;
      }
    </style>
  </defs>
  <g id="Layer_2" data-name="Layer 2">
    <g id="Layer_1-2" data-name="Layer 1">
      <g>
        <rect class="cls-1" width="72" height="72" rx="13"/>
        <path class="cls-2" d="M24.1,22.7a4.35,4.35,0,0,0,4.4-4.3,4.29,4.29,0,0,0-4.4-4.3,4.3,4.3,0,1,0,0,8.6M14.9,45.9a12.93,12.93,0,0,0-.4,3.3c0,3.8,2.1,6.4,6.5,6.4,3.6,0,6.6-2.2,8.7-5.7l-1.3,5.2h7.2l4.1-16.6c1-4.2,3-6.4,6.1-6.4A3.62,3.62,0,0,1,49.7,36a9.69,9.69,0,0,1-.3,2.3l-2.1,7.6a12.48,12.48,0,0,0-.5,3.2c0,3.6,2.1,6.3,6.6,6.3,3.8,0,6.9-2.5,8.5-8.3L59.1,46c-1.4,3.9-2.7,4.7-3.6,4.7S54,50.1,54,48.8a8.08,8.08,0,0,1,.3-2l2.1-7.4a16.74,16.74,0,0,0,.7-4.7c0-5.6-3.4-8.5-7.4-8.5-3.8,0-7.7,3.4-9.6,7.1l1.4-6.5H30.4l-1.6,5.7H34L30.8,45.3c-2.5,5.6-7.1,5.7-7.7,5.5-.9-.2-1.6-.6-1.6-1.8a10.2,10.2,0,0,1,.5-3l4.9-19.2H14.6L13,32.5h5.1L14.9,45.9"/>
      </g>
    </g>
  </g>
</svg>
