<svg xmlns="http://www.w3.org/2000/svg" xmlns:xlink="http://www.w3.org/1999/xlink" viewBox="0 0 72 72">
  <defs>
    <style>
      .cls-1 {
        fill: #fff;
      }

      .cls-2 {
        fill: url(#linear-gradient);
      }

      .cls-3 {
        fill: #ededed;
      }
    </style>
    <linearGradient id="linear-gradient" x1="-903.9" y1="566.12" x2="-904.48" y2="566.94" gradientTransform="matrix(50.39, 0, 0, -50.39, 45596.26, 28581.01)" gradientUnits="userSpaceOnUse">
      <stop offset="0" stop-color="#006ead"/>
      <stop offset="0.05" stop-color="#0075b9"/>
      <stop offset="0.17" stop-color="#0083d2"/>
      <stop offset="0.31" stop-color="#008fe6"/>
      <stop offset="0.47" stop-color="#0097f4"/>
      <stop offset="0.66" stop-color="#009cfd"/>
      <stop offset="1" stop-color="#009dff"/>
    </linearGradient>
  </defs>
  <g id="Layer_2" data-name="Layer 2">
    <g id="Layer_1-2" data-name="Layer 1">
      <g>
        <rect class="cls-1" width="72" height="72" rx="13"/>
        <g>
          <circle class="cls-2" cx="36.33" cy="35.33" r="25.19"/>
          <path d="M34.25,50.28A4.89,4.89,0,0,1,31,49l-7.6-6.77a4.92,4.92,0,0,1-1.56-4.56l1.9-10.19A4.89,4.89,0,0,1,27,23.78l9.69-3.42a4.88,4.88,0,0,1,4.84.95l7.87,7.07a4.89,4.89,0,0,1,1.53,4.69L48.7,43.26a4.91,4.91,0,0,1-3.22,3.61L35.79,50A4.73,4.73,0,0,1,34.25,50.28Z"/>
          <path class="cls-3" d="M36.33,7a28.34,28.34,0,1,0,20,8.3A28.33,28.33,0,0,0,36.33,7Zm-8.14,4.33c2.12-.87,12-3.09,20.6,1.86a1.72,1.72,0,0,1,1,1.62c.05,2,.15,6.18-.12,11.06a.45.45,0,0,1-.25.36.46.46,0,0,1-.44-.05A74.71,74.71,0,0,0,28.18,11.8a.26.26,0,0,1-.15-.24A.25.25,0,0,1,28.19,11.33ZM49.13,32.68l-2.19,10.2a3.1,3.1,0,0,1-2,2.28l-9.69,3.15a3.09,3.09,0,0,1-3-.62l-7.56-6.77a3.08,3.08,0,0,1-1-2.85l1.88-10.2a3.09,3.09,0,0,1,2-2.36l9.72-3.42a3.07,3.07,0,0,1,3,.61l7.84,7A3.09,3.09,0,0,1,49.13,32.68ZM23.23,13.56a2,2,0,0,1,1.89,0A38.76,38.76,0,0,1,34.81,19a.45.45,0,0,1,.18.4.46.46,0,0,1-.25.36,75.21,75.21,0,0,0-22.67,11,.26.26,0,0,1-.28,0,.24.24,0,0,1-.12-.24C12,28.22,13.75,19.6,23.23,13.56ZM20.18,54.2a.27.27,0,0,1-.13.26.26.26,0,0,1-.28,0c-1.83-1.4-8.25-7.68-8.72-18.91,0-.69.39-1.06,1-1.61a48.74,48.74,0,0,1,9.5-5.59.46.46,0,0,1,.44.05.44.44,0,0,1,.19.39A74.83,74.83,0,0,0,20.18,54.2ZM44.43,59c-2.11.87-11.93,3.1-20.56-1.83a1.73,1.73,0,0,1-1-1.62c-.06-2-.18-6.16.08-11a.45.45,0,0,1,.26-.35.44.44,0,0,1,.44,0A74.39,74.39,0,0,0,44.43,58.57a.25.25,0,0,1,.16.23A.27.27,0,0,1,44.43,59Zm4.83-2.11a2,2,0,0,1-1.89,0,39,39,0,0,1-9.65-5.47.45.45,0,0,1-.17-.4.42.42,0,0,1,.25-.36A75.29,75.29,0,0,0,60.51,39.87a.26.26,0,0,1,.28,0,.25.25,0,0,1,.12.26c-.3,2.23-2.13,10.83-11.65,16.82ZM60.51,36.67A49.11,49.11,0,0,1,51,42.16a.44.44,0,0,1-.61-.45,75.85,75.85,0,0,0,2.23-25.37.23.23,0,0,1,.12-.25.26.26,0,0,1,.28,0c1.81,1.41,8.17,7.74,8.55,19C61.55,35.75,61.12,36.12,60.51,36.67Z"/>
        </g>
      </g>
    </g>
  </g>
</svg>
