<svg xmlns="http://www.w3.org/2000/svg" viewBox="0 0 44 44">
  <defs>
    <style>
      .cls-1 {
        fill: #fff;
      }

      .cls-2 {
        fill: #0075ff;
      }
    </style>
  </defs>
  <g id="Layer_2" data-name="Layer 2">
    <g id="Layer_1-2" data-name="Layer 1">
      <g>
        <circle class="cls-1" cx="22" cy="22" r="22"/>
        <path class="cls-2" d="M37.55,6.45a22,22,0,0,0-31.1,0,22,22,0,0,0,0,31.1,22,22,0,0,0,31.1,0,22,22,0,0,0,0-31.1ZM14.33,30.71a2.21,2.21,0,0,1-.4,1.51,1.79,1.79,0,0,1-1.43.52,2.37,2.37,0,0,1-1.37-.41,3.18,3.18,0,0,1-1-1.2,9.85,9.85,0,0,1-.88-4.5A7,7,0,0,1,10.09,23a2.86,2.86,0,0,1,2.36-1.47,2.57,2.57,0,0,1,1.5.28,1.18,1.18,0,0,1,.38,1A3.16,3.16,0,0,1,14.05,24a6.3,6.3,0,0,0-.55,2.63,8.49,8.49,0,0,0,.56,2.94l0,.15a2.71,2.71,0,0,1,.22.88Zm19.15-8.3a4.25,4.25,0,0,0-.28.95,4.18,4.18,0,0,0,0,1.18A3.13,3.13,0,0,1,33,26.41a5.07,5.07,0,0,1-.93,1.36,3,3,0,0,0-.71,1.06,4.43,4.43,0,0,0-.18.65,4.57,4.57,0,0,1-1.6,2.68c-1.64,1.44-4.19,1.61-6,1.61A23.91,23.91,0,0,1,17.89,33c-1.19-.34-2.34-.77-2.7-1.61a7.61,7.61,0,0,1-.86-3.7c0-3.74.29-4.68.54-5.09a9.55,9.55,0,0,1,.83-.94l.19-.19c1.21-1.29,3.46-3.68,4.32-5.64A24.64,24.64,0,0,0,21.13,13l0-.14a11.3,11.3,0,0,1,1.08-2.82,1.61,1.61,0,0,1,1.34-.87,2.33,2.33,0,0,1,1.21.27,1.88,1.88,0,0,1,.79.79A6.45,6.45,0,0,1,26,13.68a15.09,15.09,0,0,1-.65,3.19A6.77,6.77,0,0,0,25,18.5a.85.85,0,0,0,.37.78c.26.18.7.19,1.67,0A16.84,16.84,0,0,1,30.27,19h.11a6.13,6.13,0,0,1,2.54.37,1.49,1.49,0,0,1,.63.55,1.39,1.39,0,0,1,.22.8A4,4,0,0,1,33.48,22.41Z"/>
      </g>
    </g>
  </g>
</svg>
