<?xml version="1.0" encoding="UTF-8"?><svg xmlns="http://www.w3.org/2000/svg" viewBox="0 0 1203.06 346.08"><defs><style>.f{fill:#fac200;}.g{fill:#ef6c49;}.h{fill:#16786f;}</style></defs><g id="a"/><g id="b"><g id="c"><g><g><g><path class="h" d="M480.6,40.71c-10.59-11.36-27.48-17.05-50.66-17.05h-59.12c1.65,2.88,2.68,5.58,3.07,8.11,.38,2.54,.58,5.97,.58,10.27v98.19c0,4.3-.2,7.73-.58,10.27-.39,2.53-1.41,5.24-3.07,8.11h59.12c23.06,0,39.93-5.8,50.58-17.39,10.66-11.59,15.99-28.26,15.99-50.01s-5.3-39.12-15.9-50.5Zm-38.83,80.73c-3.36,6.35-9.24,9.91-17.63,10.68V48.67c5.4,0,9.77,1.35,13.08,4.05,3.32,2.71,5.75,7.15,7.29,13.33,1.55,6.19,2.32,14.57,2.32,25.17,0,13.81-1.69,23.88-5.06,30.22Z"/><path class="h" d="M605.12,118.87c-2.87,2.09-7.12,4.08-12.74,5.96-5.63,1.88-11.1,2.82-16.39,2.82-6.85,0-12.43-1.99-16.73-5.96-4.3-3.98-6.46-10.54-6.46-19.71,0-5.3,.83-9.27,2.49-11.91,1.65-2.65,3.7-3.98,6.12-3.98,2.65,0,4.74,1.16,6.29,3.48,1.54,2.32,2.31,5.19,2.31,8.62,0,2.75-.55,5.52-1.65,8.28-1.1,2.75-2.7,5.18-4.81,7.29-1.76,1.98-3.8,3.41-6.12,4.3,5.08,1.43,10.44,2.15,16.06,2.15,6.74,0,12.92-1.1,18.55-3.31,5.63-2.21,10.12-5.43,13.49-9.68,3.36-4.25,5.05-9.36,5.05-15.32,0-6.41-2.26-12.03-6.78-16.9-4.53-4.85-10.51-8.55-17.97-11.09-7.45-2.54-15.43-3.81-23.93-3.81-10.04,0-19.54,1.79-28.48,5.38-8.94,3.59-16.23,9.14-21.86,16.65-5.63,7.51-8.45,16.72-8.45,27.65s2.93,20.36,8.78,27.98c5.84,7.61,13.71,13.28,23.6,16.97,9.87,3.71,20.83,5.55,32.86,5.55,14.68,0,29.15-2.6,43.38-7.78l-6.63-33.62Z"/><path class="h" d="M718.72,118.87c-2.88,2.09-7.12,4.08-12.75,5.96-5.63,1.88-11.1,2.82-16.39,2.82-6.85,0-12.42-1.99-16.72-5.96-4.31-3.98-6.46-10.54-6.46-19.71,0-5.3,.83-9.27,2.48-11.91,1.65-2.65,3.7-3.98,6.12-3.98,2.65,0,4.74,1.16,6.29,3.48,1.55,2.32,2.32,5.19,2.32,8.62,0,2.75-.55,5.52-1.66,8.28-1.1,2.75-2.7,5.18-4.79,7.29-1.77,1.98-3.81,3.41-6.12,4.3,5.07,1.43,10.43,2.15,16.06,2.15,6.73,0,12.91-1.1,18.54-3.31,5.63-2.21,10.13-5.43,13.49-9.68,3.37-4.25,5.06-9.36,5.06-15.32,0-6.41-2.27-12.03-6.79-16.9-4.52-4.85-10.51-8.55-17.97-11.09-7.45-2.54-15.43-3.81-23.92-3.81-10.05,0-19.55,1.79-28.49,5.38-8.94,3.59-16.23,9.14-21.86,16.65-5.62,7.51-8.44,16.72-8.44,27.65s2.92,20.36,8.77,27.98c5.85,7.61,13.71,13.28,23.6,16.97,9.87,3.71,20.83,5.55,32.86,5.55,14.69,0,29.15-2.6,43.38-7.78l-6.62-33.62Z"/><path class="h" d="M847.3,82.36c-3.48-7.22-8.06-12.67-13.74-16.31-5.7-3.64-11.74-5.46-18.13-5.46-5.85,0-11.43,1.53-16.73,4.55-5.3,3.04-9.77,7.49-13.41,13.34v-18.38c-4.08,4.52-10.98,7.4-20.7,8.61-9.72,1.22-20.59,1.82-32.62,1.82,.99,.77,1.84,1.97,2.56,3.56,.72,1.6,1.08,3.07,1.08,4.4v76.99c6.64-5.31,15.05-8.49,24.22-8.49,9.74,0,18.65,3.59,25.46,9.52v-2.51h.99c7.07,4.97,14.68,7.45,22.85,7.45,7.61,0,14.73-2.16,21.36-6.46,6.63-4.3,11.95-10.49,15.98-18.55,4.03-8.05,6.05-17.38,6.05-27.98s-1.75-18.84-5.22-26.08Zm-49.59,46.37c-2.43,5.03-5.96,7.54-10.59,7.54-.77,0-1.38-.06-1.82-.17v-47.86c1.32-.33,2.48-.5,3.48-.5,4.2,0,7.34,2.29,9.44,6.88,2.09,4.58,3.14,10.12,3.14,16.64s-1.21,12.45-3.64,17.47Z"/><path class="h" d="M961.14,118.87c-2.87,2.09-7.12,4.08-12.75,5.96-5.63,1.88-11.1,2.82-16.39,2.82-6.85,0-12.42-1.99-16.72-5.96-4.3-3.98-6.46-10.54-6.46-19.71,0-5.3,.83-9.27,2.48-11.91,1.65-2.65,3.7-3.98,6.12-3.98,2.65,0,4.75,1.16,6.29,3.48,1.55,2.32,2.32,5.19,2.32,8.62,0,2.75-.55,5.52-1.65,8.28-1.11,2.75-2.71,5.18-4.81,7.29-1.77,1.98-3.81,3.41-6.12,4.3,5.08,1.43,10.43,2.15,16.06,2.15,6.73,0,12.92-1.1,18.55-3.31,5.62-2.21,10.12-5.43,13.49-9.68,3.36-4.25,5.05-9.36,5.05-15.32,0-6.41-2.26-12.03-6.79-16.9-4.52-4.85-10.51-8.55-17.97-11.09-7.44-2.54-15.42-3.81-23.92-3.81-10.05,0-19.54,1.79-28.49,5.38-8.94,3.59-16.23,9.14-21.85,16.65-5.63,7.51-8.45,16.72-8.45,27.65s2.92,20.36,8.77,27.98c5.85,7.61,13.71,13.28,23.6,16.97,9.88,3.71,20.83,5.55,32.87,5.55,14.68,0,29.15-2.6,43.38-7.78l-6.63-33.62Z"/><path class="h" d="M1067.53,116.39c-4.25-3.32-9.19-5.47-14.81-6.46-5.63-.99-12.53-1.72-20.71-2.16-6.07-.33-10.41-.74-12.99-1.25-2.6-.49-3.89-1.51-3.89-3.06,0-2.09,3.64-3.15,10.93-3.15,6.07,0,13.44,.64,22.11,1.91,8.66,1.28,14.81,2.51,18.46,3.73l2.32-38.91c-14.03-4.19-28.43-6.29-43.23-6.29s-26.63,2.29-36.18,6.88c-9.55,4.58-14.32,11.51-14.32,20.78,0,7.29,2.43,12.77,7.29,16.47,4.86,3.71,10.44,6.1,16.73,7.2,6.29,1.11,14.07,1.88,23.35,2.32,5.74,.22,9.99,.58,12.75,1.08,2.75,.49,4.14,1.4,4.14,2.73,0,1.43-1.24,2.56-3.73,3.39-2.48,.83-5.82,1.24-10.02,1.24-6.07,0-13.14-.83-21.19-2.48-8.06-1.65-15.84-4.03-23.35-7.12l-2.98,39.08c7.17,2.75,14.74,4.88,22.69,6.38,7.95,1.49,15.72,2.23,23.35,2.23,14.35,0,26.22-2.53,35.61-7.61,9.38-5.08,14.07-12.48,14.07-22.19,0-6.51-2.13-11.42-6.38-14.73Z"/><path class="h" d="M1149.16,150.5c-.39,2.53-1.4,5.24-3.06,8.11h56.96c-1.65-2.87-2.68-5.58-3.07-8.11-.39-2.54-.58-5.97-.58-10.27v-50c0-6.41-1.41-11.89-4.23-16.48-2.81-4.59-6.53-8.01-11.17-10.27-4.64-2.26-9.66-3.39-15.07-3.39-8.84,0-16.56,3-23.19,9.02-6.63,6.02-10.81,14.44-12.58,25.25h-.66V21.01c-4.08,4.53-10.98,7.4-20.7,8.62-9.72,1.21-20.59,1.82-32.62,1.82,.99,.77,1.84,1.96,2.56,3.56,.72,1.6,1.08,3.06,1.08,4.39v100.84c0,4.3-.2,7.73-.58,10.27-.4,2.53-1.41,5.24-3.07,8.11h56.96c-1.65-2.87-2.68-5.58-3.07-8.11-.39-2.54-.58-5.97-.58-10.27v-39.08c.66-2.09,1.96-3.83,3.89-5.21,1.93-1.37,3.94-2.07,6.04-2.07s3.83,.86,5.21,2.58c1.38,1.71,2.07,4.33,2.07,7.86v35.93c0,4.3-.2,7.73-.59,10.27Z"/></g><g><path class="h" d="M480.6,183.96c-10.59-11.37-27.48-17.05-50.66-17.05h-59.12c1.65,2.87,2.68,5.58,3.07,8.11,.38,2.54,.58,5.96,.58,10.27v98.19c0,4.3-.2,7.73-.58,10.27-.39,2.53-1.41,5.25-3.07,8.11h59.12c23.06,0,39.93-5.8,50.58-17.39,10.66-11.59,15.99-28.26,15.99-50.01s-5.3-39.13-15.9-50.5Zm-38.83,80.73c-3.36,6.34-9.24,9.9-17.63,10.68v-83.46c5.4,0,9.77,1.36,13.08,4.06,3.32,2.7,5.75,7.15,7.29,13.33,1.55,6.19,2.32,14.57,2.32,25.17,0,13.81-1.69,23.88-5.06,30.22Z"/><path class="h" d="M608.44,262.13c-2.88,2.09-7.12,4.08-12.75,5.96-5.63,1.88-11.1,2.82-16.39,2.82-6.85,0-12.42-1.99-16.72-5.96-4.31-3.98-6.46-10.54-6.46-19.71,0-5.3,.83-9.27,2.48-11.91,1.65-2.65,3.7-3.98,6.12-3.98,2.65,0,4.74,1.16,6.29,3.48,1.55,2.32,2.32,5.19,2.32,8.62,0,2.75-.55,5.52-1.66,8.27-1.1,2.76-2.7,5.19-4.79,7.29-1.77,1.99-3.81,3.42-6.12,4.31,5.07,1.43,10.43,2.15,16.06,2.15,6.73,0,12.91-1.1,18.54-3.31s10.13-5.43,13.49-9.68c3.37-4.25,5.06-9.36,5.06-15.32,0-6.41-2.27-12.04-6.79-16.9-4.52-4.86-10.51-8.55-17.97-11.09-7.45-2.54-15.43-3.81-23.92-3.81-10.05,0-19.55,1.79-28.49,5.38-8.94,3.59-16.23,9.13-21.86,16.64-5.62,7.52-8.44,16.73-8.44,27.66s2.92,20.36,8.77,27.98c5.85,7.61,13.71,13.27,23.6,16.97,9.87,3.7,20.83,5.55,32.86,5.55,14.69,0,29.15-2.6,43.38-7.79l-6.62-33.61Z"/><path class="h" d="M718.14,259.63c-4.25-3.31-9.19-5.45-14.81-6.45-5.63-.99-12.53-1.72-20.71-2.16-6.07-.33-10.41-.74-12.99-1.25-2.6-.49-3.89-1.51-3.89-3.06,0-2.09,3.64-3.15,10.93-3.15,6.07,0,13.44,.64,22.11,1.91,8.66,1.27,14.81,2.51,18.46,3.73l2.32-38.91c-14.03-4.19-28.43-6.29-43.23-6.29s-26.63,2.29-36.17,6.87c-9.56,4.59-14.33,11.52-14.33,20.78,0,7.29,2.43,12.78,7.29,16.48,4.86,3.71,10.44,6.1,16.73,7.2,6.29,1.11,14.07,1.88,23.35,2.32,5.74,.22,9.99,.58,12.75,1.07,2.75,.5,4.14,1.41,4.14,2.73,0,1.44-1.24,2.58-3.73,3.4-2.48,.83-5.82,1.24-10.02,1.24-6.07,0-13.14-.83-21.19-2.48-8.06-1.65-15.84-4.03-23.35-7.12l-2.98,39.08c7.17,2.75,14.74,4.88,22.69,6.38,7.95,1.49,15.74,2.23,23.35,2.23,14.35,0,26.22-2.53,35.61-7.61,9.38-5.08,14.07-12.48,14.07-22.19,0-6.51-2.13-11.42-6.38-14.74Z"/><path class="h" d="M787.02,293.75c-.39-2.54-.59-5.97-.59-10.27v-69.51c-6.94,6.55-16.31,10.57-26.61,10.57-8.89,0-17.06-2.99-23.61-8.01,.37,1.08,.54,2.08,.54,3.03v63.91c0,4.3-.19,7.73-.58,10.27-.39,2.53-1.41,5.25-3.07,8.11h56.96c-1.65-2.87-2.68-5.58-3.06-8.11Z"/><path class="h" d="M876.85,264.78c10.81-1.87,19.73-5.33,26.74-10.35,7.01-5.01,10.52-11.45,10.52-19.28s-2.54-13.8-7.62-18.89c6.95-1.1,12.03-2.65,15.23-4.63l-5.46-32.96c-7.73,5.52-16.61,10.51-26.65,14.99-10.05,4.47-20.37,7.69-30.97,9.68-12.92,0-23.79,1.52-32.62,4.55-8.83,3.04-15.37,7-19.62,11.92-4.25,4.91-6.38,10.01-6.38,15.32,0,8.17,3.34,14.68,10.02,19.54,6.68,4.86,14.71,8.5,24.09,10.93-3.09,.22-6.04,.66-8.86,1.32-2.82,.67-4.94,1.38-6.38,2.16v27.82c9.94-4.52,19.92-6.78,29.97-6.78,4.64,0,8.83,.49,12.58,1.49,3.75,.99,6.68,2.26,8.77,3.81s3.15,3.14,3.15,4.79c0,2.1-1.8,3.84-5.38,5.22-3.59,1.37-8.97,2.06-16.14,2.06-13.81,0-29.26-1.87-46.37-5.62l-2.16,36.27c16.56,5.3,32.74,7.95,48.53,7.95,13.35,0,25.36-1.88,36.01-5.63,10.65-3.76,18.98-8.97,25-15.65s9.02-14.32,9.02-22.93c0-19.65-15.01-32.02-45.04-37.09Zm-11.1-19.7c-2.43,2.53-5.3,3.8-8.61,3.8s-6.35-1.27-8.78-3.8c-2.43-2.54-3.63-6.13-3.63-10.77s1.2-8.44,3.63-11.09c2.43-2.65,5.36-3.98,8.78-3.98s6.18,1.33,8.61,3.98c2.43,2.65,3.64,6.34,3.64,11.09s-1.21,8.23-3.64,10.77Z"/><path class="h" d="M999.3,293.75c-.39,2.53-1.4,5.25-3.07,8.11h56.96c-1.65-2.87-2.67-5.58-3.06-8.11-.39-2.54-.59-5.97-.59-10.27v-50.01c0-6.4-1.4-11.89-4.22-16.47-2.82-4.59-6.54-8.01-11.18-10.27-4.63-2.26-9.65-3.39-15.07-3.39-5.85,0-11.45,1.35-16.8,4.05-5.36,2.71-9.72,6.66-13.09,11.84-3.36,5.19-5.05,11.32-5.05,18.38h-1.49v-34.28c-4.09,4.52-10.99,7.39-20.71,8.61-9.72,1.21-20.58,1.82-32.61,1.82,.98,.77,1.84,1.97,2.56,3.56,.71,1.6,1.08,3.07,1.08,4.39v61.77c0,4.3-.2,7.73-.59,10.27-.39,2.53-1.4,5.25-3.06,8.11h56.95c-1.65-2.87-2.67-5.58-3.06-8.11-.39-2.54-.58-5.97-.58-10.27v-39.08c.66-2.09,1.96-3.83,3.88-5.21,1.94-1.38,3.95-2.07,6.05-2.07s3.83,.86,5.21,2.58c1.37,1.71,2.06,4.32,2.06,7.86v35.93c0,4.3-.19,7.73-.58,10.27Z"/></g><circle class="h" cx="759.82" cy="185.76" r="25.46"/></g><g id="d"><g id="e"><g><path class="f" d="M326.43,162.54c0,85.09-65.11,154.97-148.22,162.54v-81.37c.79-.14,1.57-.3,2.36-.47,18.17-3.88,34.71-13.99,46.55-28.46,12.01-14.68,18.63-33.23,18.63-52.23s-6.62-37.55-18.63-52.23c-11.84-14.47-28.38-24.58-46.57-28.47-.78-.17-1.56-.32-2.34-.47V0c83.12,7.57,148.23,77.45,148.23,162.54Z"/><path class="g" d="M0,162.54C0,77.44,65.1,7.57,148.22,0V81.36c-.79,.15-1.58,.3-2.36,.47-18.18,3.89-34.72,14-46.56,28.47-12.01,14.68-18.63,33.23-18.63,52.23s6.62,37.55,18.63,52.23c11.84,14.47,28.38,24.58,46.57,28.47,.78,.17,1.56,.32,2.34,.47v81.37C65.11,317.5,0,247.62,0,162.54h0Z"/><path class="h" d="M103.08,162.54c0-13.85,4.82-27.36,13.56-38.05,8.12-9.93,19.26-17.03,31.58-20.2,.78-.2,1.56-.38,2.34-.55,4.13-.89,8.37-1.33,12.65-1.33s8.52,.45,12.63,1.33c.79,.17,1.58,.36,2.36,.56,12.32,3.17,23.45,10.28,31.57,20.2,8.75,10.69,13.57,24.2,13.57,38.05s-4.82,27.35-13.57,38.04c-8.12,9.92-19.26,17.03-31.57,20.2-.78,.2-1.56,.38-2.34,.55-4.12,.89-8.38,1.34-12.65,1.34s-8.53-.45-12.64-1.33c-.79-.17-1.58-.36-2.36-.56-12.32-3.17-23.46-10.28-31.58-20.2-8.75-10.69-13.56-24.2-13.56-38.04h0Z"/></g></g></g></g></g></g></svg>