<svg xmlns="http://www.w3.org/2000/svg" viewBox="0 0 1080 1080">
  <g id="Layer_2" data-name="Layer 2">
    <g id="Layer_55" data-name="Layer 55">
      <g>
        <path d="M912.38,414.78a52.89,52.89,0,1,0-81.88,44.13l-24,157.93-51.06-56.31a52.15,52.15,0,1,0-96.37-1l-56.93,60.31L570,455.93A52.85,52.85,0,1,0,490.6,434.2L436,491.81a49.86,49.86,0,0,0-32.57-2.31L351.5,433.14a52.19,52.19,0,0,0,6.61-25.07,52.89,52.89,0,1,0-87.95,39.29L213.29,613.75a52.77,52.77,0,1,0,41.77,14.12l57.29-167.64c1.24-.16,2.53-.17,3.74-.42l53.1,57.63a52.2,52.2,0,1,0,96.38,7.26l58-61.21c1,.32,2,.71,3.1,1l32.43,164.89a52.84,52.84,0,1,0,81.54,44.33,52.23,52.23,0,0,0-6-24l56.63-60a47.23,47.23,0,0,0,31.38.31L776,648.84a52.21,52.21,0,0,0-6.48,24.84,52.89,52.89,0,1,0,79.82-45.26l24.76-163.08A52.79,52.79,0,0,0,912.38,414.78Z" style="fill: #fff"/>
        <path d="M540,0C242.24,0,0,242.25,0,540s242.24,540,540,540,540-242.25,540-540S837.76,0,540,0Zm0,1008.12c-125,0-242.61-48.7-331-137.11S71.88,665,71.88,540,120.57,297.41,209,209,415,71.88,540,71.88,782.61,120.58,871,209s137.1,206,137.1,331S959.43,782.59,871,871,665.05,1008.12,540,1008.12Z" style="fill: #fff"/>
      </g>
    </g>
  </g>
</svg>
