<svg xmlns="http://www.w3.org/2000/svg" viewBox="0 0 572.003 178.855"><g id="abf3e047-1509-40e9-8d42-f28853858725" data-name="Layer 8"><path d="M114.431,61.067v-.01a49.829,49.829,0,0,0-98.39.11c0,.01,0,.01-.01.01a50.807,50.807,0,0,0-.61,7.85v87.93a2.712,2.712,0,0,0,2.71,2.71h35.32a2.712,2.712,0,0,0,2.71-2.71V67.587a8.913,8.913,0,0,1,17.63.43v89.1a2.546,2.546,0,0,0,2.54,2.55h36.18a2.548,2.548,0,0,0,2.55-2.55V69.027A50.993,50.993,0,0,0,114.431,61.067Z" style="fill:#005c97"/><path d="M437.975,21.347a2.164,2.164,0,0,0-2.16-2.16h-36.58a2.164,2.164,0,0,0-2.16,2.16v91.94a5.522,5.522,0,0,1-11.04-.19V21.267a1.765,1.765,0,0,0-1.76-1.77h-37.04a1.765,1.765,0,0,0-1.76,1.77v91.71a5.645,5.645,0,0,1-11.29,0V21.867a2.68,2.68,0,0,0-2.68-2.68h-35.39a2.672,2.672,0,0,0-2.67,2.68v94.08a2.718,2.718,0,0,0,.16.91c-.11,1.17-.16,2.36-.16,3.56a38.93,38.93,0,0,0,72.27,20.1,38.924,38.924,0,0,0,72.26-20.1c0-1.09-.04-2.16-.13-3.23a1.97,1.97,0,0,0,.13-.73Z" style="fill:#005c97"/><path d="M555.771,60.077a49.826,49.826,0,0,0-98.85,8.96v89a1.314,1.314,0,0,0,1.31,1.31h38.39a1.317,1.317,0,0,0,1.32-1.31v-28.52a2.262,2.262,0,0,1,2.27-2.27h13.36a2.27,2.27,0,0,1,2.28,2.27v28.26a1.573,1.573,0,0,0,1.57,1.57H555a1.581,1.581,0,0,0,1.58-1.57V69.037A49.935,49.935,0,0,0,555.771,60.077Zm-39.92,9.07V89.2a1.7,1.7,0,0,1-1.7,1.69h-14.52a1.688,1.688,0,0,1-1.69-1.69V69.147a8.955,8.955,0,1,1,17.91,0Z" style="fill:#005c97"/><path d="M274.477,87.646V87.6a70.273,70.273,0,0,0-98.13-62.648,66.5,66.5,0,0,0-8.1,4.173c1-.525,2.011-1,3.038-1.445a48.946,48.946,0,0,1,8.154-2.718.7.7,0,0,1,.139-.032A57.785,57.785,0,0,1,191.67,23.6a69.722,69.722,0,0,1,21.8,3.563c25.348,8.078,41.227,31.822,37.557,56.207-2.868,18.949-17.912,31.779-34.5,32.827a35.127,35.127,0,0,1-19.431-4.419c-14.06-7.779-19.046-25.53-10.754-38.188,4.772-7.276,13.76-11.331,21.464-9.694,8.817,1.872,14.349,7.287,15.708,15.483.9,5.339-.76,10.09-4.323,15.055a18.78,18.78,0,0,0,2.343-.5c9.844-4.184,14.445-15.547,10.925-27.745-11.149-38.649-55.447-40.7-76.162-25.916a50.172,50.172,0,0,0-7.009,6.014q-1.4,1.428-2.632,2.931a70.228,70.228,0,0,0,6.484,88.382,3.461,3.461,0,0,0,.268.289,70.009,70.009,0,0,0,39.13,20.79c.674.118,1.358.225,2.043.321.535.075,1.07.139,1.6.2s1.081.117,1.616.171,1.07.1,1.605.128c.428.032.856.064,1.284.075.353.021.695.043,1.049.043.3.021.588.032.877.032.546.011,1.091.021,1.637.021,1.209,0,2.418-.032,3.617-.1.47-.021.931-.053,1.4-.086.45-.032.9-.064,1.349-.107l1.305-.128a69.6,69.6,0,0,0,33.748-13.1c.652-.481,1.305-.963,1.947-1.466q.673-.53,1.316-1.059a70.3,70.3,0,0,0,23.8-38.456c.118-.535.235-1.059.342-1.594.118-.567.225-1.145.321-1.723.107-.556.193-1.123.279-1.68.085-.513.16-1.016.214-1.53q.127-.93.224-1.861c.118-1.242.214-2.483.289-3.745a.068.068,0,0,0,0-.065c.032-.631.054-1.273.075-1.926.011-.535.021-1.08.021-1.626V89.1C274.5,88.609,274.488,88.127,274.477,87.646Z" style="fill:#005c97"/></g></svg>