<svg xmlns="http://www.w3.org/2000/svg" viewBox="0 0 772.7 1024">
  <g id="Layer_2" data-name="Layer 2">
    <g id="Layer_1-2" data-name="Layer 1">
      <g>
        <g id="Layer_2-2" data-name="Layer 2">
          <g id="Layer_2-2-2" data-name="Layer 2-2">
            <circle cx="385.5" cy="387.1" r="105.2" fill="#fff"/>
          </g>
        </g>
        <path d="M472.2,9.8C409.6-4.8,342.6-2.8,280.7,14.1h-1.6C175.6,43.3,85,116.9,38.5,214.2A416.3,416.3,0,0,0,12.9,282c-3.5,14.6-7.5,28.8-8.7,43.7C-21.4,532.5,73.1,749.6,208.6,903.2c33.9,39,74.8,76.4,113.4,110.7,22.8,22.8,64.6,4.3,63.4-28V810.2A36.8,36.8,0,0,1,400,780.3c9.8-8.3,23.2-8.3,35.5-9.1,7.9-1.2,19.3-2.8,27.2-4.3,139.8-26.8,258.4-138.3,295.8-275.7C818.8,282,680.6,53.5,472.2,9.8ZM597.1,398.2c-3.5,65.8-39,128.4-94.1,164.7C341.1,672,127.2,515.6,182.4,328.1,257.1,88.9,604.9,146.9,597.1,398.2Z" fill="#fff"/>
      </g>
    </g>
  </g>
</svg>
