<svg xmlns="http://www.w3.org/2000/svg" viewBox="0 0 72 71">
  <defs>
    <style>
      .cls-1 {
        fill: #001e36;
      }

      .cls-2 {
        fill: #31a8ff;
      }
    </style>
  </defs>
  <g id="Layer_2" data-name="Layer 2">
    <g id="Layer_1-2" data-name="Layer 1">
      <g>
        <path class="cls-1" d="M12.75,0h46.5A12.81,12.81,0,0,1,72,12.9V58.1A12.81,12.81,0,0,1,59.25,71H12.75A12.81,12.81,0,0,1,0,58.1V12.9A12.81,12.81,0,0,1,12.75,0Z"/>
        <path class="cls-2" d="M14,50.53V19.66c0-.21.09-.33.3-.33.51,0,1,0,1.68,0s1.47,0,2.28-.06,1.68,0,2.61-.06,1.83,0,2.73,0a17.64,17.64,0,0,1,6.18.93,10.71,10.71,0,0,1,4,2.46A9.55,9.55,0,0,1,36,26a11.48,11.48,0,0,1,.69,3.9,10.73,10.73,0,0,1-1.8,6.39,10.28,10.28,0,0,1-4.83,3.66,19.44,19.44,0,0,1-6.75,1c-.72,0-1.2,0-1.5,0s-.72,0-1.29,0V50.5a.37.37,0,0,1-.33.42H14.36C14.12,50.92,14,50.8,14,50.53Zm6.54-25.41V35.2c.42,0,.81.06,1.17.06H23.3a11.21,11.21,0,0,0,3.45-.54,5.16,5.16,0,0,0,2.46-1.59A4.64,4.64,0,0,0,30.14,30a4.94,4.94,0,0,0-.69-2.67,4.35,4.35,0,0,0-2.1-1.71,8.8,8.8,0,0,0-3.54-.6c-.78,0-1.47,0-2,0a6.87,6.87,0,0,0-1.23,0ZM55.4,33.37a10.62,10.62,0,0,0-2.88-1A15.81,15.81,0,0,0,49.16,32a6,6,0,0,0-1.8.21,1.54,1.54,0,0,0-.93.6,1.59,1.59,0,0,0-.24.81,1.33,1.33,0,0,0,.3.78,3.39,3.39,0,0,0,1,.81c.69.36,1.41.69,2.13,1a21.73,21.73,0,0,1,4.62,2.19,7,7,0,0,1,2.37,2.49,6.48,6.48,0,0,1,.69,3.09,7,7,0,0,1-1.17,4,7.52,7.52,0,0,1-3.36,2.67,13.75,13.75,0,0,1-5.43,1,20.67,20.67,0,0,1-4.08-.39,12.1,12.1,0,0,1-3.06-1,.59.59,0,0,1-.33-.57V44.41a.33.33,0,0,1,.12-.27.23.23,0,0,1,.27,0A12.84,12.84,0,0,0,44,45.64a14,14,0,0,0,3.54.45A5.73,5.73,0,0,0,50,45.67a1.39,1.39,0,0,0,.81-1.26,1.59,1.59,0,0,0-.72-1.2,12.72,12.72,0,0,0-2.94-1.41,18.36,18.36,0,0,1-4.26-2.16,7.77,7.77,0,0,1-2.28-2.55A6.44,6.44,0,0,1,40,34a7.06,7.06,0,0,1,1-3.63,7.39,7.39,0,0,1,3.15-2.76,11.63,11.63,0,0,1,5.31-1.05,25.86,25.86,0,0,1,3.72.27,10.56,10.56,0,0,1,2.58.69.53.53,0,0,1,.3.27,1.51,1.51,0,0,1,.06.36v4.89a.37.37,0,0,1-.15.3A.8.8,0,0,1,55.4,33.37Z"/>
      </g>
    </g>
  </g>
</svg>
