<svg xmlns="http://www.w3.org/2000/svg" xmlns:xlink="http://www.w3.org/1999/xlink" viewBox="0 0 275.51 104.08"><defs><linearGradient id="linear-gradient" x1="28.72" y1="93.35" x2="249.25" y2="-6.95" gradientUnits="userSpaceOnUse"><stop offset="0" stop-color="#26c4fc"/><stop offset="0.24" stop-color="#274ef2"/><stop offset="0.48" stop-color="#a02af4"/><stop offset="0.74" stop-color="#f74d82"/><stop offset="1" stop-color="#fcd844"/></linearGradient><linearGradient id="linear-gradient-2" x1="46.7" y1="132.88" x2="267.22" y2="32.58" xlink:href="#linear-gradient"/><linearGradient id="linear-gradient-3" x1="37.12" y1="111.81" x2="257.64" y2="11.52" xlink:href="#linear-gradient"/><linearGradient id="linear-gradient-4" x1="19.87" y1="73.9" x2="240.4" y2="-26.4" xlink:href="#linear-gradient"/><linearGradient id="linear-gradient-5" x1="50.87" y1="142.06" x2="271.4" y2="41.77" xlink:href="#linear-gradient"/><linearGradient id="linear-gradient-6" x1="14.88" y1="62.92" x2="235.41" y2="-37.38" xlink:href="#linear-gradient"/><linearGradient id="linear-gradient-7" x1="11.35" y1="55.15" x2="231.87" y2="-45.14" xlink:href="#linear-gradient"/></defs><g id="Layer_2" data-name="Layer 2"><g id="Layer_1-2" data-name="Layer 1"><path d="M114.23,26.89A27.57,27.57,0,1,0,141.8,54.46,27.6,27.6,0,0,0,114.23,26.89Zm0,41a13.41,13.41,0,1,1,13.41-13.41A13.42,13.42,0,0,1,114.23,67.87Z" style="fill:url(#linear-gradient)"/><path d="M218.19,28.37a24.59,24.59,0,0,0-33,23.1V81.78h14.16V50.19a10.46,10.46,0,0,1,2.16-5.26l.23-.27c.13-.15.25-.3.38-.44s.36-.35.54-.52a1.59,1.59,0,0,1,.13-.13c.12-.11.26-.21.39-.32a10.49,10.49,0,0,1,17,7V81.78h14.15V51.47A24.66,24.66,0,0,0,218.19,28.37Z" style="fill:url(#linear-gradient-2)"/><polygon points="156.42 44.54 156.42 81.78 170.57 81.78 170.57 59.16 170.57 26.89 156.42 26.89 156.42 44.54" style="fill:url(#linear-gradient-3)"/><path d="M163.49,0a8.58,8.58,0,1,0,8.58,8.58A8.58,8.58,0,0,0,163.49,0Z" style="fill:url(#linear-gradient-4)"/><path d="M275.51,35.91V25.49H261.62V10.08H247.47V25.49h-7.94V35.91h7.94v22.4c0,.47,0,.94.05,1.41a24.64,24.64,0,0,0,16.12,21.69,23.15,23.15,0,0,0,3.08.9h0a25,25,0,0,0,8.23.41V68.8h-4a10.49,10.49,0,0,1-9.28-9.23V35.91Z" style="fill:url(#linear-gradient-5)"/><path d="M73.08,49.39c.06-.34.11-.68.15-1l.12-1c0-.31.05-.62.07-.93s.06-.67.08-1,0-.65,0-1,0-.6,0-.91a36.77,36.77,0,0,0-38-36.75c-.71,0-1.41.07-2.11.13L32.81,7c-.5,0-1,.11-1.49.18l-.67.11c-.49.07-1,.16-1.45.26l-.59.12c-.61.14-1.21.29-1.81.45l-.16,0c-.67.19-1.33.4-2,.62l-.34.12c-.52.19-1.05.38-1.56.59l-.49.2-1.42.64-.44.21c-.54.26-1.08.54-1.61.83l-.15.08a37.5,37.5,0,0,0-3.46,2.2l-.28.2c-.46.34-.91.68-1.35,1l-.28.23c-.48.39-.95.79-1.4,1.2l-.11.1a35.25,35.25,0,0,0-2.89,3,.52.52,0,0,1-.1.11C8.38,20,8,20.5,7.6,21l-.17.23c-.38.49-.74,1-1.09,1.5l-.07.1,0,0c-.47.7-.91,1.41-1.33,2.13a2.53,2.53,0,0,0-.13.22c-.38.66-.73,1.34-1.07,2l-.13.27c-.35.72-.67,1.46-1,2.2l-.16.43c-.26.68-.51,1.37-.73,2.06l-.09.29C1.39,33.25,1.18,34,1,34.8l-.12.54c-.16.73-.31,1.48-.43,2.23l0,.21c-.13.81-.21,1.62-.28,2.45,0,.19,0,.39,0,.58C0,41.65,0,42.49,0,43.34c0,.29,0,1.92,0,2.2a78.4,78.4,0,0,0,20,47.1,91.92,91.92,0,0,0,7.55,7.62l3.23,2.9a3.59,3.59,0,0,0,6-2.67V83.8A3.61,3.61,0,0,1,38.15,81,3.45,3.45,0,0,1,40,80.22c.42,0,.83-.08,1.24-.13l.28,0,1-.15.6-.1c.31,0,.62-.11.92-.18l.66-.13.88-.21q.34-.08.69-.18l.83-.23.72-.22.79-.25,1-.38,1-.37c.29-.12.57-.23.85-.36s.44-.19.66-.3l.78-.36.64-.33.77-.4.62-.34.77-.46.57-.34.87-.57.43-.29c.42-.29.83-.58,1.24-.89l.38-.29.85-.67.47-.4.72-.62.48-.44.67-.63.46-.46c.23-.22.44-.45.66-.68l.42-.45c.25-.27.49-.55.73-.83l.3-.34c.32-.39.64-.78,1-1.18l.37-.5.55-.75.4-.59c.16-.23.31-.46.46-.7l.41-.64c.14-.22.27-.45.41-.68l.39-.67.36-.69c.13-.23.25-.47.37-.7l.32-.66c.25-.52.49-1,.71-1.58l.21-.49.35-.9c.06-.19.14-.37.2-.56s.21-.61.31-.92l.18-.55c.1-.32.19-.64.28-1,0-.16.09-.33.14-.5.09-.35.18-.69.26-1a.29.29,0,0,1,0-.09,1.29,1.29,0,0,1,0-.19c.11-.49.21-1,.3-1.49C73,49.91,73,49.65,73.08,49.39ZM56.76,46c0,.24-.07.47-.11.71-.06.41-.13.83-.22,1.23s-.13.53-.2.79-.19.73-.31,1.09-.2.57-.31.85-.24.64-.37,1-.29.6-.43.9-.27.55-.42.82-.37.61-.56.92-.29.47-.45.71-.44.61-.68.91-.3.41-.47.61-.53.59-.8.88-.32.36-.49.52-.61.56-.92.84l-.51.45c-.32.26-.67.51-1,.76l-.53.38c-.36.24-.73.46-1.11.67-.18.11-.35.23-.54.33-.39.2-.79.39-1.19.57l-.56.27c-.41.17-.84.31-1.27.46l-.57.2c-.44.14-.9.25-1.35.35l-.57.15c-.49.09-1,.16-1.5.22l-.49.08c-.67.06-1.35.1-2,.1A20.08,20.08,0,0,1,17.44,38c0-.14.06-.28.1-.41.14-.43.3-.84.46-1.25.08-.2.14-.42.23-.62.15-.36.33-.7.5-1s.23-.49.36-.72.36-.6.54-.9.31-.52.48-.77.37-.5.56-.75.4-.55.62-.81.37-.41.55-.62.5-.56.77-.83l.58-.52c.28-.26.56-.53.86-.77s.34-.25.51-.38c.34-.26.68-.53,1-.77l.46-.28c.39-.25.78-.49,1.19-.71l.41-.2c.44-.22.89-.45,1.35-.64l.26-.09A20.13,20.13,0,0,1,56.92,43.59c0,.35,0,.7-.06,1S56.81,45.56,56.76,46Z" style="fill:url(#linear-gradient-6)"/><circle cx="36.78" cy="43.59" r="10" style="fill:url(#linear-gradient-7)"/></g></g></svg>