<svg xmlns="http://www.w3.org/2000/svg" xmlns:xlink="http://www.w3.org/1999/xlink" viewBox="0 0 72 72">
  <defs>
    <style>
      .cls-1 {
        fill: #fff;
      }

      .cls-2 {
        fill-rule: evenodd;
        fill: url(#linear-gradient);
      }
    </style>
    <linearGradient id="linear-gradient" x1="-898.83" y1="567.69" x2="-898.83" y2="567.06" gradientTransform="matrix(39, 0, 0, -54, 35091, 30664)" gradientUnits="userSpaceOnUse">
      <stop offset="0" stop-color="#d378e5"/>
      <stop offset="1" stop-color="#7526c2"/>
    </linearGradient>
  </defs>
  <g id="Layer_2" data-name="Layer 2">
    <g id="Layer_1-2" data-name="Layer 1">
      <g>
        <rect class="cls-1" width="72" height="72" rx="13"/>
        <path class="cls-2" d="M17,54.65V28.71A19.5,19.5,0,1,1,36.92,48.42h0a5.57,5.57,0,0,1-.08-11.14h0A8.57,8.57,0,1,0,28,28.71V57.43A5.54,5.54,0,0,1,22.51,63a5.48,5.48,0,0,1-3.17-1A3.85,3.85,0,1,0,17,54.65Zm19.92-7.94a3.86,3.86,0,1,0-3.81-3.85A3.83,3.83,0,0,0,36.92,46.71Z"/>
      </g>
    </g>
  </g>
</svg>
