<svg xmlns="http://www.w3.org/2000/svg" width="685" height="620" viewBox="0 0 685 620">
  <g fill="none" fill-rule="evenodd" transform="translate(.896 .769)">
    <ellipse cx="352.604" cy="582.231" fill="#F22F55" fill-rule="nonzero" opacity=".1" rx="237.5" ry="36"/>
    <path fill="#F22F55" fill-rule="nonzero" d="M210.960387,23.2849212 C234.135975,2.85939665 270.520479,-1.32414453 303.644281,0.324662878 C407.666802,5.44334855 501.55654,55.0736819 582.797218,111.225418 C612.205052,131.558658 641.157618,153.460727 660.241948,181.459691 C699.099663,238.441983 687.570316,317.387866 633.541112,364.329659 C615.15814,380.325552 592.874631,392.550105 570.000504,403.402703 C529.321718,422.702363 485.43145,438.19377 439.264842,442.604945 C406.344065,445.748753 373.017237,443.18941 340.28718,438.802844 C248.839892,426.547529 159.078324,399.428339 83.8484103,353.058707 C50.8538054,332.743923 19.7540986,307.433499 6.15143753,274.525026 C-7.45122356,241.616552 1.22962438,199.916491 34.9501967,180.444567 C48.8850802,172.385098 65.5454177,168.755261 81.855076,165.328449 C105.848915,160.302047 130.261108,155.34332 151.929391,145.124406 C174.305184,134.560964 200.802995,114.141592 196.373363,90.775284 C191.617661,65.6924938 187.790952,43.6735322 210.960387,23.2849212 Z" opacity=".1"/>
    <g transform="translate(372.104 2.302)">
      <path fill="#F22F55" d="M9.01705115,49.3287838 L39.7267771,53.0879268 C40.166948,53.1415873 40.5874237,52.8943812 40.7566565,52.485536 L46.3129216,39.0192102 C46.4906884,38.587652 46.9480844,38.3404231 47.4066947,38.4281342 L56.6868026,40.2106731 L46.6789158,34.9982783 C46.4475278,34.8777851 46.17632,34.8538247 45.9263489,34.9334558 L25.2739106,41.4959414 L48.3272506,26.2433927 C48.5644878,26.0885497 48.7208437,25.8372482 48.7593567,25.556215 L50.4682782,12.950894 C50.5909531,12.0496011 49.529132,11.4825577 48.8443167,12.0833171 L8.488438,47.6175052 C7.85192842,48.177077 8.17504606,49.227116 9.01705115,49.3287838" transform="scale(-1 1) rotate(69 -105.207 -152.619)"/>
      <path stroke="#F22F55" stroke-dasharray="10" stroke-linecap="round" stroke-linejoin="round" stroke-width="2" d="M0,193.929232 C65.3333333,161.929232 100.333333,137.595899 105,120.929232 C112,95.929232 96,63.929232 72,63.929232 C48,63.929232 31,83.929232 34,102.929232 C37,121.929232 45,130.929232 63,134.929232 C81,138.929232 128,131.929232 163,109.929232 C186.333333,95.2625653 205.333333,78.2625653 220,58.929232"/>
    </g>
    <g transform="translate(199.104 91.231)">
      <polygon fill="#504F60" fill-rule="nonzero" points="159.73 283.18 159.65 286.11 154.55 466.18 145.97 466.18 150.18 286.11 150.26 282.73"/>
      <polygon fill="#000" fill-rule="nonzero" points="159.73 283.18 159.65 286.11 154.55 466.18 145.97 466.18 150.18 286.11 150.26 282.73" opacity=".1"/>
      <polygon fill="#504F60" fill-rule="nonzero" points="209.38 435.72 202.96 435.7 107.51 435.5 102.43 435.49 105.13 427.14 208.7 427.14"/>
      <polygon fill="#000" fill-rule="nonzero" points="159.73 283.18 159.65 286.11 150.18 286.11 150.26 282.73" opacity=".1"/>
      <rect width="15.91" height="5.98" x="147.44" y="278.78" fill="#504F60" fill-rule="nonzero"/>
      <polygon fill="#000" fill-rule="nonzero" points="108.36 427.14 107.51 435.5 102.43 435.49 105.13 427.14" opacity=".1"/>
      <polygon fill="#504F60" fill-rule="nonzero" points="122.06 278.67 121.79 281.26 100.62 490.09 90.92 489.64 113.23 281.26 113.48 278.89"/>
      <polygon fill="#000" fill-rule="nonzero" points="209.38 435.72 202.96 435.7 202.09 427.14 208.7 427.14" opacity=".1"/>
      <polygon fill="#504F60" fill-rule="nonzero" points="219.54 489.64 209.83 490.09 188.66 281.26 188.4 278.67 196.97 278.89 197.22 281.26"/>
      <rect width="213.91" height="205.11" x="46.92" y="72.76" fill="#FFF" fill-rule="nonzero"/>
      <rect width="308" height="205.11" y="72.76" fill="#FFF" fill-rule="nonzero" rx="4.13"/>
      <path fill="#504F60" fill-rule="nonzero" d="M158.04,4.17 L158.04,53.7 L149.7,53.7 L149.7,4.17 C149.7,1.86697259 151.566973,1.13686838e-13 153.87,1.13686838e-13 C156.173027,1.13686838e-13 158.04,1.86697259 158.04,4.17 Z"/>
      <rect width="8.35" height="4.51" x="149.7" y="49.19" fill="#000" fill-rule="nonzero" opacity=".1"/>
      <path fill="#504F60" fill-rule="nonzero" d="M161.32,52.57 L161.32,68.93 L146.43,68.93 L146.43,52.57 C146.43,51.4654305 147.325431,50.57 148.43,50.57 L159.26,50.57 C159.800751,50.5537701 160.32501,50.757297 160.713162,51.1341432 C161.101314,51.5109895 161.320244,52.0290058 161.32,52.57 L161.32,52.57 Z"/>
      <circle cx="153.87" cy="60.92" r="3.16" fill="#000" fill-rule="nonzero" opacity=".1"/>
      <circle cx="153.87" cy="60.24" r="3.16" fill="#3F3D56" fill-rule="nonzero"/>
      <rect width="14.89" height="2.03" x="146.43" y="66.9" fill="#000" fill-rule="nonzero" opacity=".1"/>
      <rect width="27.08" height="4.51" x="140.33" y="69.61" fill="#000" fill-rule="nonzero" opacity=".1"/>
      <rect width="27.08" height="4.51" x="140.33" y="68.25" fill="#504F60" fill-rule="nonzero"/>
      <path fill="#000" fill-rule="nonzero" d="M100.17,272.53 L211.75,272.53 C215.063708,272.53 217.75,275.216292 217.75,278.53 L217.75,278.53 L94.19,278.53 L94.19,278.53 C94.19,275.224086 96.8641047,272.54102 100.17,272.53 Z" opacity=".1"/>
      <polygon fill="#000" fill-rule="nonzero" points="113.48 278.89 122.06 278.67 121.79 281.26 113.23 281.26" opacity=".1"/>
      <rect width="15.91" height="2.48" x="147.44" y="278.78" fill="#000" fill-rule="nonzero" opacity=".1"/>
      <polygon fill="#000" fill-rule="nonzero" points="197.22 281.26 188.66 281.26 188.4 278.67 196.97 278.89" opacity=".1"/>
      <path fill="#504F60" fill-rule="nonzero" d="M100.17,273.93 L211.75,273.93 C215.063708,273.93 217.75,276.616292 217.75,279.93 L217.75,279.93 L94.19,279.93 L94.19,279.93 C94.19,276.616292 96.8762915,273.93 100.19,273.93 L100.17,273.93 Z"/>
      <path fill="#FFF" fill-rule="nonzero" stroke="#33313F" stroke-width="3" d="M253.36 96.85C253.819166 96.7784296 254.285432 96.9251902 254.620825 97.2468534 254.956218 97.5685166 255.122327 98.0282454 255.07 98.49 253.62 112.49 254.55 126.83 256.12 140.8 256.85 147.19 257.84 153.95 260.67 158.69 261.041666 159.281607 260.958943 160.050931 260.47 160.55 259.679858 161.164822 258.687883 161.460987 257.69 161.38L213.06 161.630046C212.601185 161.633603 212.166297 161.425619 211.8811 161.066193 211.595903 160.706767 211.492207 160.235988 211.6 159.79 215.19 144.49 214.42 127.79 212.98 111.92 212.27 104.11 211.86 99.92 217.69 99.37 223.69 98.83 229.69 98.58 235.69 98.08 237.13 97.96 248.67 97.62 253.36 96.85zM219.21 188.54C218.750834 188.46843 218.284568 188.61519 217.949175 188.936853 217.613782 189.258517 217.447673 189.718245 217.5 190.18 218.95 204.18 218.02 218.52 216.44 232.49 215.72 238.88 214.73 245.64 211.9 250.39 211.526084 250.977617 211.609139 251.745873 212.1 252.24 212.890142 252.854822 213.882117 253.150987 214.88 253.07L259.51 253.33C259.968277 253.326596 260.400209 253.11525 260.684123 252.755497 260.968036 252.395743 261.073204 251.926518 260.97 251.48 257.38 236.18 258.15 219.48 259.59 203.61 260.3 195.8 260.71 191.61 254.88 191.06 249.05 190.51 242.88 190.27 236.88 189.77 235.44 189.65 223.9 189.31 219.21 188.54z"/>
      <path stroke="#33313F" stroke-linecap="round" stroke-width="2" d="M232.32 214.3C237.505905 214.058148 242.701547 214.12159 247.88 214.49 248.572065 214.556646 249.122797 215.099033 249.2 215.79L249.69 219.88C249.740356 220.065635 249.695407 220.26416 249.57 220.41 249.459968 220.488987 249.324659 220.524595 249.19 220.51 247.01 220.57 244.83 220.32 242.66 220.51 241.31 220.62 239.97 220.88 238.66 221.03 236.4455 221.224984 234.220087 221.265082 232 221.15 228.871969 221.203937 225.751759 220.820222 222.73 220.01 222.73 220.01 222.91 216.62 222.91 216.3 222.91 214.72 222.86 214.58 224.49 214.54L232.32 214.3zM232.32 232.74C237.506017 232.983526 242.701956 232.91674 247.88 232.54 248.572065 232.473354 249.122797 231.930967 249.2 231.24L249.69 227.16C249.740312 226.971198 249.69554 226.769724 249.57 226.62 249.459968 226.541013 249.324659 226.505405 249.19 226.52 247.01 226.46 244.83 226.72 242.66 226.52 241.31 226.42 239.97 226.16 238.66 226.01 236.445768 225.810013 234.219999 225.769909 232 225.89 228.871969 225.836063 225.751759 226.219778 222.73 227.03 222.73 227.03 222.91 230.41 222.91 230.74 222.91 232.32 222.86 232.45 224.49 232.5L232.32 232.74zM232.32 239.96C237.506017 239.716474 242.701956 239.78326 247.88 240.16 248.572065 240.226646 249.122797 240.769033 249.2 241.46L249.69 245.54C249.740312 245.728802 249.69554 245.930276 249.57 246.08 249.459968 246.158987 249.324659 246.194595 249.19 246.18 247.01 246.24 244.83 245.98 242.66 246.18 241.31 246.28 239.97 246.55 238.66 246.7 236.445267 246.891651 234.219854 246.928407 232 246.81 228.872431 246.867328 225.752212 246.486977 222.73 245.68 222.73 245.68 222.91 242.29 222.91 241.96 222.91 240.38 222.86 240.25 224.49 240.21L232.32 239.96z"/>
      <path fill="#FFF" fill-rule="nonzero" stroke="#33313F" stroke-linecap="round" stroke-width="2" d="M238.89 154.37C239.347393 155.469206 239.499413 156.671543 239.33 157.85 239.33169 157.944695 239.307486 158.038054 239.26 158.12 239.148151 158.228177 238.995073 158.282848 238.84 158.27L229.34 158.64C229.34 158.64 229.87 155.84 229.94 155.64 230.27 154.5 231.1 154.8 232.17 154.74L238.89 154.37zM253.24 154.37C253.694008 155.470136 253.842569 156.672442 253.67 157.85 253.675252 157.943809 253.654489 158.037245 253.61 158.12 253.496807 158.225996 253.34473 158.280309 253.19 158.27L243.68 158.64C243.68 158.64 244.22 155.84 244.29 155.64 244.61 154.5 245.44 154.8 246.52 154.74L253.24 154.37z"/>
      <path stroke="#33313F" stroke-width="3" d="M247.51 106.63L248.79 117.63C248.876311 118.432842 248.63534 119.23658 248.121565 119.859508 247.60779 120.482437 246.864596 120.871954 246.06 120.94 237.94363 121.581725 229.787248 121.528196 221.68 120.78 220.189503 120.636579 219.032993 119.416056 218.97 117.92 218.817968 115.959177 218.530617 114.011203 218.11 112.09 217.78 110.09 217.42 108.16 219.78 107.57 222.14 106.98 225.37 107.4 227.95 107.35 231.043333 107.29 234.126667 107.203333 237.2 107.09 238.06 107.09 247.51 106.58 247.51 106.63zM247.51 146.37L248.77 135.37C248.856311 134.567158 248.61534 133.76342 248.101565 133.140492 247.58779 132.517563 246.844596 132.128046 246.04 132.06 237.923733 131.419946 229.767777 131.470126 221.66 132.21 220.165875 132.353975 219.008125 133.58008 218.95 135.08 218.797968 137.040823 218.510617 138.988797 218.09 140.91 217.76 142.91 217.4 144.84 219.76 145.43 222.12 146.02 225.35 145.6 227.93 145.65 231.02 145.71 234.1 145.79 237.18 145.91 238.06 145.94 247.51 146.45 247.51 146.37z"/>
      <path stroke="#33313F" stroke-linecap="round" stroke-width="2" d="M234.66,195.94 C234.326667,199.6 234.116667,203.266667 234.03,206.94 C230.35944,206.90905 226.702441,206.490054 223.12,205.69 C222.548749,205.663036 222.018873,205.384119 221.673275,204.92847 C221.327676,204.472821 221.201949,203.887366 221.33,203.33 C221.26,201.05 220.06,195.96 223.27,195.64 C224.23,195.54 234.65,196.12 234.66,195.94 Z"/>
      <path fill="#FFF" fill-rule="nonzero" stroke="#33313F" stroke-linecap="round" stroke-width="3" d="M58.09,145.98 C59.0425704,145.876673 59.9911357,146.206993 60.6734846,146.87965 C61.3558335,147.552306 61.6996893,148.496049 61.61,149.45 C60.46,162.76 61.37,176.39 62.87,189.66 C63.54,195.56 64.43,201.77 66.79,206.42 C67.2077513,207.230784 67.1737867,208.200475 66.7003314,208.980044 C66.226876,209.759613 65.3820732,210.236858 64.47,210.24 L64.47,210.24 L20.19,210.500038 C19.6544646,210.503506 19.1464691,210.262984 18.809784,209.846506 C18.4730988,209.430029 18.3443591,208.882913 18.46,208.36 C21.97,193.14 21.2,176.52 19.77,160.78 C19.05,152.97 18.65,148.78 24.47,148.23 C30.47,147.7 36.47,147.45 42.42,146.94 C43.69,146.84 52.77,146.56 58.09,145.98 Z"/>
      <path fill="#FFF" fill-rule="nonzero" stroke="#33313F" stroke-width="3" d="M119.69,145.73 C119.198849,145.65462 118.700698,145.813191 118.343497,146.158616 C117.986296,146.504042 117.811121,146.996598 117.87,147.49 C119.3,161.42 118.37,175.74 116.8,189.66 C116.08,196.05 115.09,202.78 112.27,207.53 C111.860464,208.225948 112.041603,209.118705 112.69,209.6 C113.446513,210.0793 114.336694,210.303598 115.23,210.24 L159.74,210.5 C160.235002,210.5 160.702247,210.271372 161.005471,209.880115 C161.308695,209.488858 161.413751,208.979284 161.29,208.5 C157.74,193.23 158.5,176.55 159.94,160.75 C160.65,152.94 161.06,148.75 155.24,148.2 C149.24,147.67 143.24,147.42 137.24,146.91 C135.77,146.82 124.47,146.49 119.69,145.73 Z"/>
      <line x1="31.58" x2="54.22" y1="154.82" y2="185.02" fill="#FFF" fill-rule="nonzero" stroke="#33313F" stroke-linecap="round" stroke-width="2"/>
      <line x1="54.22" x2="32.33" y1="152.56" y2="186.53" fill="#FFF" fill-rule="nonzero" stroke="#33313F" stroke-linecap="round" stroke-width="2"/>
      <line x1="132.61" x2="144.94" y1="156.24" y2="172.69" fill="#FFF" fill-rule="nonzero" stroke="#33313F" stroke-linecap="round" stroke-width="2"/>
      <line x1="144.94" x2="133.02" y1="155" y2="173.51" fill="#FFF" fill-rule="nonzero" stroke="#33313F" stroke-linecap="round" stroke-width="2"/>
      <path stroke="#33313F" stroke-linecap="round" stroke-width="2" d="M39.06 194.67C44.2492395 194.428194 49.4482064 194.491636 54.63 194.86 55.3186693 194.933866 55.8656295 195.472539 55.95 196.16L56.43 200.25C56.4781798 200.437342 56.4376243 200.636433 56.32 200.79 56.2054788 200.85893 56.0736163 200.893631 55.94 200.89 53.76 200.95 51.57 200.69 49.4 200.89 48.05 200.99 46.72 201.25 45.4 201.4 43.1855052 201.595082 40.9600851 201.635179 38.74 201.52 35.6152273 201.574579 32.4982301 201.190845 29.48 200.38 29.42 200.38 29.66 197 29.66 196.67 29.66 195.09 29.6 194.96 31.23 194.91L39.06 194.67zM134.18 179.57C139.369352 179.326529 144.568614 179.393314 149.75 179.77 150.442065 179.836646 150.992797 180.379033 151.07 181.07L151.55 185.15C151.59818 185.337342 151.557624 185.536433 151.44 185.69 151.32957 185.768137 151.194587 185.803659 151.06 185.79 148.88 185.85 146.69 185.59 144.52 185.79 143.17 185.89 141.84 186.16 140.52 186.3 138.305768 186.499987 136.079999 186.540091 133.86 186.42 130.731969 186.473937 127.611759 186.090222 124.59 185.28 124.54 185.28 124.77 181.9 124.77 181.57 124.77 179.99 124.72 179.86 126.35 179.81L134.18 179.57zM142.11 190.9C136.924094 190.658194 131.728455 190.721637 126.55 191.09 125.857935 191.156646 125.307203 191.699033 125.23 192.39L124.77 196.47C124.711435 196.656943 124.752974 196.860863 124.88 197.01 124.990032 197.088987 125.125341 197.124595 125.26 197.11 127.44 197.17 129.62 196.92 131.8 197.11 133.15 197.21 134.48 197.48 135.8 197.63 138.014761 197.82001 140.239832 197.860101 142.46 197.75 145.588094 197.80512 148.708467 197.421385 151.73 196.61 151.78 196.61 151.55 193.22 151.55 192.9 151.55 191.31 151.61 191.18 149.98 191.14L142.11 190.9z"/>
      <path stroke="#33313F" stroke-width="3" d="M77.4 183.5C77.4 183.5 92.11 182.75 94.75 183.5M94.77 175.58C94.77 175.58 101.18 181.99 101.18 183.5 101.18 185.01 92.88 190.29 92.88 190.29M173.61 169.82C173.61 169.82 186.94 163.58 189.67 163.28"/>
      <path stroke="#33313F" stroke-width="3" d="M186.69 155.95C186.69 155.95 195.04 159.47 195.61 160.86 196.18 162.25 190.49 170.28 190.49 170.28M173.47 185.8C173.47 185.8 187.02 191.55 189.07 193.39"/>
      <path stroke="#33313F" stroke-width="3" d="M192.53,186.26 C192.53,186.26 195.53,194.83 194.83,196.19 C194.13,197.55 184.4,198.67 184.4,198.67"/>
      <path fill="#FFF" fill-rule="nonzero" stroke="#33313F" stroke-linecap="round" stroke-width="2" d="M226.06,154.37 C226.514008,155.470136 226.662569,156.672442 226.49,157.85 C226.495252,157.943809 226.474489,158.037245 226.43,158.12 C226.316807,158.225996 226.16473,158.280309 226.01,158.27 L216.5,158.64 C216.5,158.64 217.04,155.84 217.11,155.64 C217.43,154.5 218.27,154.8 219.34,154.74 L226.06,154.37 Z"/>
    </g>
  </g>
</svg>
