<svg xmlns="http://www.w3.org/2000/svg" viewBox="0 0 35 35"><defs><style>.cls-1{fill:#fff;}.cls-2{fill:#f22f55;}</style></defs><g id="Layer_2" data-name="Layer 2"><g id="Layer_1-2" data-name="Layer 1"><rect class="cls-1" x="1" y="1" width="33" height="33" rx="6"/><path class="cls-2" d="M28,35H7a7,7,0,0,1-7-7V7A7,7,0,0,1,7,0H28a7,7,0,0,1,7,7V28A7,7,0,0,1,28,35ZM7,2A5,5,0,0,0,2,7V28a5,5,0,0,0,5,5H28a5,5,0,0,0,5-5V7a5,5,0,0,0-5-5Z"/><path class="cls-2" d="M26.2,24.7l-4.1-4.1a7.4,7.4,0,0,0,1.5-4.5,7.6,7.6,0,1,0-7.5,7.5,7.4,7.4,0,0,0,4.5-1.5l4.1,4.1a1.1,1.1,0,0,0,1.5-1.5ZM10.7,16.1a5.4,5.4,0,1,1,5.4,5.4A5.4,5.4,0,0,1,10.7,16.1Z"/></g></g></svg>