<svg xmlns="http://www.w3.org/2000/svg" xmlns:xlink="http://www.w3.org/1999/xlink" viewBox="0 0 35 35">
  <defs>
    <linearGradient id="linear-gradient" x1="2.93" y1="32.18" x2="26.98" y2="9.6" gradientTransform="matrix(1, 0, 0, -1, 0, 36)" gradientUnits="userSpaceOnUse">
      <stop offset="0" stop-color="#0074f8"/>
      <stop offset="1" stop-color="#e007b5"/>
    </linearGradient>
    <linearGradient id="linear-gradient-2" x1="2.97" y1="32.23" x2="27.02" y2="9.65" xlink:href="#linear-gradient"/>
  </defs>
  <g id="Layer_2" data-name="Layer 2">
    <g id="Layer_1-2" data-name="Layer 1">
      <g>
        <path d="M7,1H28a6,6,0,0,1,6,6V28a6,6,0,0,1-6,6H7a6,6,0,0,1-6-6V7A6,6,0,0,1,7,1Z" fill="#fff"/>
        <g id="Layer_2-2" data-name="Layer 2">
          <g id="Layer_1-2-2" data-name="Layer 1-2">
            <path d="M28,35H7a7,7,0,0,1-7-7V7A7,7,0,0,1,7,0H28a7,7,0,0,1,7,7h0V28A7,7,0,0,1,28,35ZM7,2A5,5,0,0,0,2,7V28a5,5,0,0,0,5,5H28a5,5,0,0,0,5-5V7a5,5,0,0,0-5-5Z" fill="url(#linear-gradient)"/>
            <path d="M26.2,24.7l-4.1-4.1a7.4,7.4,0,0,0,1.5-4.5,7.6,7.6,0,1,0-7.7,7.5h.2a7.4,7.4,0,0,0,4.5-1.5l4.1,4.1a1.1,1.1,0,0,0,1.5-.4A1.1,1.1,0,0,0,26.2,24.7ZM10.7,16.1a5.4,5.4,0,1,1,5.4,5.4h0A5.4,5.4,0,0,1,10.7,16.1Z" fill="url(#linear-gradient-2)"/>
          </g>
        </g>
      </g>
    </g>
  </g>
</svg>
