<svg xmlns="http://www.w3.org/2000/svg" xmlns:xlink="http://www.w3.org/1999/xlink" viewBox="0 0 35 35">
  <defs>
    <linearGradient id="linear-gradient" x1="2.49" y1="31.62" x2="26.17" y2="10.92" gradientTransform="matrix(1, 0, 0, -1, 0, 36)" gradientUnits="userSpaceOnUse">
      <stop offset="0" stop-color="#0074f8"/>
      <stop offset="1" stop-color="#e007b5"/>
    </linearGradient>
    <linearGradient id="linear-gradient-2" x1="1.33" y1="30.29" x2="25.01" y2="9.59" xlink:href="#linear-gradient"/>
  </defs>
  <g id="Layer_2" data-name="Layer 2">
    <g id="Layer_1-2" data-name="Layer 1">
      <g>
        <path d="M7,1H28a6,6,0,0,1,6,6V28a6,6,0,0,1-6,6H7a6,6,0,0,1-6-6V7A6,6,0,0,1,7,1Z" fill="#fff"/>
        <g id="Layer_2-2" data-name="Layer 2">
          <g id="Layer_1-2-2" data-name="Layer 1-2">
            <path d="M28,35H7a7,7,0,0,1-7-7V7A7,7,0,0,1,7,0H28a7,7,0,0,1,7,7h0V28A7,7,0,0,1,28,35ZM7,2A5,5,0,0,0,2,7V28a5,5,0,0,0,5,5H28a5,5,0,0,0,5-5V7a5,5,0,0,0-5-5Z" fill="url(#linear-gradient)"/>
            <path d="M11.3,25.3l1.8-8.7a1.6,1.6,0,0,1,1.3-1.2l2.2-6.2a.9.9,0,0,1,1.8,0l2.1,6.2a1.3,1.3,0,0,1,1.3,1.2l1.9,8.7c.1.7-.2,1.2-.9,1.2a.8.8,0,0,1-.9-.7h0l-1.8-8.6H14.9l-1.8,8.6a1,1,0,0,1-.9.7C11.5,26.5,11.2,26,11.3,25.3Z" fill="url(#linear-gradient-2)"/>
          </g>
        </g>
      </g>
    </g>
  </g>
</svg>
