<svg xmlns="http://www.w3.org/2000/svg" xmlns:xlink="http://www.w3.org/1999/xlink" viewBox="0 0 72 72">
  <defs>
    <style>
      .cls-1 {
        fill: #fff;
      }

      .cls-2 {
        fill: #e15830;
      }

      .cls-3 {
        mask: url(#mask);
      }

      .cls-4 {
        fill: #9e3226;
      }

      .cls-5 {
        fill: #2a3641;
      }

      .cls-6 {
        fill: #3e4b55;
      }

      .cls-7 {
        fill: #988675;
      }

      .cls-8 {
        fill: #f6dac0;
      }

      .cls-9 {
        fill: #3a4659;
      }

      .cls-10 {
        fill: #b88782;
      }

      .cls-11 {
        fill: #efb39c;
      }
    </style>
    <mask id="mask" x="0" y="0" width="72" height="72" maskUnits="userSpaceOnUse">
      <g id="group-b">
        <rect id="group-a" class="cls-1" width="72" height="72" rx="13"/>
      </g>
    </mask>
  </defs>
  <g id="Layer_2" data-name="Layer 2">
    <g id="Layer_1-2" data-name="Layer 1">
      <g>
        <rect id="group-a-2" data-name="group-a" class="cls-2" width="72" height="72" rx="13"/>
        <g class="cls-3">
          <g>
            <path class="cls-2" d="M51.84,53.11a22.51,22.51,0,0,0-1.2-3.73L42.06,22.43,38.66,11.7a4.5,4.5,0,0,0-.79-1.46L71.82,43.78V2.38A2.38,2.38,0,0,0,69.44,0H14.56V13.24a1.28,1.28,0,0,1-1.28,1.28H0v54.9A2.37,2.37,0,0,0,2.38,71.8H51.84Z"/>
            <g>
              <path class="cls-4" d="M71.8,69.42V43.78L37.85,10.23a4.55,4.55,0,0,1,.79,1.47l3.42,10.73,8.58,27a21.92,21.92,0,0,1,1.2,3.73V71.82H69.42a2.38,2.38,0,0,0,1.69-.7A2.35,2.35,0,0,0,71.8,69.42Z"/>
              <g>
                <path class="cls-5" d="M38.66,11.71l3.4,10.72h-3.7S37.42,12.1,36,10.14a1.22,1.22,0,0,1,1.74,0l.12.11A4.72,4.72,0,0,1,38.66,11.71Z"/>
                <path class="cls-6" d="M38.36,22.43H31.48l3.44-10.71A3.56,3.56,0,0,1,36,10.15C37.42,12.09,38.36,22.43,38.36,22.43Z"/>
              </g>
              <g>
                <g>
                  <path class="cls-7" d="M42.06,22.43l8.58,27C48.19,44,44.73,46.86,43,55.23l-4.59-32.8Z"/>
                  <path class="cls-8" d="M38.36,22.43,43,55.23c-3.54-13.77-10.56-8.72-12.59,0-3.44-13.56-6.47-8.63-7.91-4.77l9-28Z"/>
                </g>
                <g>
                  <path class="cls-9" d="M51.84,53.15V71.8H43V55.26c1.78-8.42,5.24-11.33,7.69-5.86A22.43,22.43,0,0,1,51.84,53.15Z"/>
                  <path class="cls-10" d="M43,55.26V71.8H30.36V55.26C32.39,46.49,39.41,41.41,43,55.26Z"/>
                  <path class="cls-11" d="M30.36,55.26V71.8H21.57V53.35a28,28,0,0,1,.86-2.83v-.06C23.89,46.58,26.92,41.63,30.36,55.26Z"/>
                </g>
              </g>
            </g>
          </g>
        </g>
      </g>
    </g>
  </g>
</svg>
