<svg xmlns="http://www.w3.org/2000/svg" viewBox="0 0 35 35"><defs><style>.cls-1{fill:#fff;}.cls-2{fill:#f22f55;}</style></defs><g id="Layer_2" data-name="Layer 2"><g id="Layer_1-2" data-name="Layer 1"><rect class="cls-1" x="1" y="1" width="33" height="33" rx="6"/><path class="cls-2" d="M28,35H7a7,7,0,0,1-7-7V7A7,7,0,0,1,7,0H28a7,7,0,0,1,7,7V28A7,7,0,0,1,28,35ZM7,2A5,5,0,0,0,2,7V28a5,5,0,0,0,5,5H28a5,5,0,0,0,5-5V7a5,5,0,0,0-5-5Z"/><path class="cls-2" d="M11.3,25.3l1.8-8.7a1.5,1.5,0,0,1,1.3-1.2l2.2-6.2a.9.9,0,0,1,.9-.7.9.9,0,0,1,.9.7l2.1,6.2a1.3,1.3,0,0,1,1.3,1.2l1.9,8.7c.1.7-.2,1.2-.9,1.2a.8.8,0,0,1-.9-.7l-1.8-8.6H14.9l-1.8,8.6a.9.9,0,0,1-.9.7C11.5,26.5,11.2,26,11.3,25.3Z"/></g></g></svg>