<svg xmlns="http://www.w3.org/2000/svg" viewBox="0 0 44 44">
  <defs>
    <style>
      .cls-1 {
        fill: #ffd747;
      }

      .cls-2 {
        fill: #fff;
      }
    </style>
  </defs>
  <g id="Layer_2" data-name="Layer 2">
    <g id="Layer_1-2" data-name="Layer 1">
      <g>
        <circle class="cls-1" cx="22" cy="22" r="22"/>
        <path class="cls-2" d="M29.7,34.5a.93.93,0,0,1-.53-.17L22,29.13l-7.18,5.2a.88.88,0,0,1-1.24-.2.9.9,0,0,1-.13-.81L16.25,25,9,20.06a.89.89,0,0,1-.23-1.24.86.86,0,0,1,.73-.39h9l2.7-8.31a.89.89,0,0,1,1.12-.58.91.91,0,0,1,.58.58l2.7,8.31h9a.89.89,0,0,1,.89.89.91.91,0,0,1-.39.74l-7.25,5,2.79,8.29A.89.89,0,0,1,30,34.45.92.92,0,0,1,29.7,34.5Z"/>
      </g>
    </g>
  </g>
</svg>
