<svg xmlns="http://www.w3.org/2000/svg" viewBox="0 0 72 72">
  <defs>
    <style>
      .cls-1 {
        fill: #fff;
      }

      .cls-2 {
        fill: #3b4be6;
      }
    </style>
  </defs>
  <g id="Layer_2" data-name="Layer 2">
    <g id="Layer_1-2" data-name="Layer 1">
      <g>
        <rect class="cls-1" width="72" height="72" rx="13"/>
        <path class="cls-2" d="M50.58,28.53S46.36,41.75,46,42.88C45.92,41.75,42.83,18,42.83,18c-7.2,0-11.08,5.1-13.07,10.53,0,0-5.14,13.25-5.54,14.36,0-1-.79-14.23-.79-14.23C23,22,16.92,18,12,18l5.91,36c7.55,0,11.58-5.12,13.72-10.53,0,0,4.52-11.7,4.7-12.23.05.51,3.25,22.76,3.25,22.76,7.55,0,11.63-4.77,13.84-10L64,18C56.53,18,52.61,23.11,50.58,28.53Z"/>
      </g>
    </g>
  </g>
</svg>
