<svg xmlns="http://www.w3.org/2000/svg" viewBox="0 0 72 71">
  <defs>
    <style>
      .cls-1 {
        fill: #470137;
      }

      .cls-2 {
        fill: #ff61f6;
      }
    </style>
  </defs>
  <g id="Layer_2" data-name="Layer 2">
    <g id="Layer_1-2" data-name="Layer 1">
      <g>
        <path class="cls-1" d="M12.75,0h46.5a12.72,12.72,0,0,1,9,3.77A13,13,0,0,1,72,12.9V58.1a13,13,0,0,1-3.73,9.13,12.72,12.72,0,0,1-9,3.77H12.75a12.72,12.72,0,0,1-9-3.77A13,13,0,0,1,0,58.1V12.9A13,13,0,0,1,3.73,3.77,12.72,12.72,0,0,1,12.75,0Z"/>
        <path class="cls-2" d="M37.86,21.45l-9,14.85,9.6,15.75a.57.57,0,0,1,.06.36c0,.12-.15,0-.33.06H31.32c-.48,0-.81,0-1-.33-.63-1.26-1.29-2.49-1.92-3.75s-1.32-2.49-2-3.78-1.5-2.61-2.22-3.9h-.06c-.63,1.29-1.32,2.58-2,3.87s-1.38,2.58-2,3.84S18.69,51,18,52.2c-.12.3-.36.33-.69.33h-6.6c-.12,0-.21.06-.21-.09a.43.43,0,0,1,.06-.33l9.33-15.3L10.8,21.42c-.09-.12-.12-.24-.06-.3A.34.34,0,0,1,11,21h6.81a1.52,1.52,0,0,1,.42.06.86.86,0,0,1,.3.27c.57,1.29,1.23,2.58,1.92,3.87s1.45,2.55,2.2,3.8,1.38,2.52,2,3.81h.06c.63-1.32,1.29-2.61,2-3.87s1.35-2.52,2-3.78,1.35-2.55,2-3.78a.52.52,0,0,1,.18-.3.54.54,0,0,1,.39-.06h6.33a.28.28,0,0,1,.33.21.28.28,0,0,1-.09.21ZM51.72,53.1a14.8,14.8,0,0,1-6.45-1.35,10.46,10.46,0,0,1-4.53-4.08,13,13,0,0,1-1.65-6.84,12.32,12.32,0,0,1,1.65-6.33,12.53,12.53,0,0,1,4.77-4.65,15.4,15.4,0,0,1,7.59-1.74h.63a5.33,5.33,0,0,1,.93.06V18.72c0-.21.09-.33.3-.33h6.09a.27.27,0,0,1,.3.21V47.22c0,.54,0,1.14.06,1.8s.09,1.23.12,1.74a.49.49,0,0,1-.3.48,23.08,23.08,0,0,1-4.89,1.44,26.46,26.46,0,0,1-4.62.42Zm2.94-6V33.9l-.81-.15c-.33,0-.66-.06-1-.06a7.37,7.37,0,0,0-3.39.78,6.75,6.75,0,0,0-2.55,2.22,6.65,6.65,0,0,0-1,3.81,8.36,8.36,0,0,0,.51,3.09,5.82,5.82,0,0,0,1.35,2.13,5.13,5.13,0,0,0,2,1.2,8.05,8.05,0,0,0,2.49.39,8.45,8.45,0,0,0,1.26-.06,2.49,2.49,0,0,0,1.08-.15Z"/>
      </g>
    </g>
  </g>
</svg>
