<svg xmlns="http://www.w3.org/2000/svg" viewBox="0 0 72 72">
  <defs>
    <style>
      .cls-1 {
        fill: #fff;
      }

      .cls-2 {
        fill: #f89920;
      }

      .cls-2, .cls-3, .cls-4, .cls-5 {
        fill-rule: evenodd;
      }

      .cls-3 {
        fill: #ffbe22;
      }

      .cls-4, .cls-6 {
        fill: #f0670a;
      }

      .cls-5 {
        fill: #ffd00e;
      }
    </style>
  </defs>
  <g id="Layer_2" data-name="Layer 2">
    <g id="Layer_1-2" data-name="Layer 1">
      <g>
        <rect class="cls-1" width="72" height="72" rx="13"/>
        <g>
          <polygon class="cls-2" points="12.29 45.2 6.2 38.4 24.82 31.63 27.71 39.58 12.29 45.2"/>
          <polygon class="cls-3" points="12.24 45.07 11.95 54.19 30.57 47.41 27.67 39.46 12.24 45.07"/>
          <path class="cls-4" d="M64,26.41c2.65,7.69-5.9,17.79-19.22,22.64s-26.36,2.6-29.28-5Z"/>
          <path class="cls-5" d="M64,26.41c-2.89-7.62-16-9.87-29.29-5s-21.89,15-19.21,22.66Z"/>
          <path class="cls-2" d="M64,26.41c1.65,5.15-7.64,13.16-20.91,18s-25.54,4.65-27.58-.35Z"/>
          <path class="cls-3" d="M64,26.41c-2-5-14.3-5.21-27.6-.37s-22.59,12.86-20.9,18Z"/>
          <path class="cls-6" d="M41.6,19.43c-1.27-4.38-2.71-6.81-4.35-6.76-3.17.09-4.23,10.13-3.21,23s3.73,22.77,7.08,22.68c2-.05,3.12-3.25,3.52-8.79,0-.12-.12,0-.12-.15s0-.21-.09-.21l-.42,0c-.35,5.39-1.4,8.49-2.91,8.53-2.75.07-5.41-9.59-6.41-22.08-1-12.28.08-22.22,2.58-22.29,1.18,0,2.51,2.2,3.68,6.24l.65-.13Z"/>
          <path class="cls-6" d="M25.9,16.31C23.2,18,27.3,27.19,34.62,37.82S49.24,55.68,52.1,53.92c1.59-1,1.14-3.94-.91-8.43a.35.35,0,0,0-.27-.2.33.33,0,0,0-.3.14.31.31,0,0,0,0,.33c1.91,4.17,2.32,6.9,1.15,7.61-2.34,1.44-9.48-5.6-16.59-15.92-7-10.15-11-19.28-8.92-20.59,1.13-.7,3.82,1,7.38,4.62a2.89,2.89,0,0,0,.32.29c.11,0,.05-.2.14-.29a.33.33,0,0,0,.1-.23.33.33,0,0,0-.09-.23c-3.8-3.88-6.66-5.66-8.19-4.71Z"/>
        </g>
      </g>
    </g>
  </g>
</svg>
